<?xml version="1.0" encoding="utf-8"?>
<!-- Generator: Adobe Illustrator 16.0.4, SVG Export Plug-In . SVG Version: 6.00 Build 0)  -->
<!DOCTYPE svg PUBLIC "-//W3C//DTD SVG 1.1//EN" "http://www.w3.org/Graphics/SVG/1.1/DTD/svg11.dtd">
<svg version="1.1" id="Layer_1" xmlns="http://www.w3.org/2000/svg" xmlns:xlink="http://www.w3.org/1999/xlink" x="0px" y="0px"
	 width="76.446px" height="76.446px" viewBox="0 0 76.446 76.446" enable-background="new 0 0 76.446 76.446" xml:space="preserve">
<circle fill="none" stroke="#03BBD5" stroke-width="3" stroke-linecap="round" stroke-linejoin="round" stroke-miterlimit="10" cx="38.223" cy="38.223" r="36.723"/>
<polyline fill="none" stroke="#323232" stroke-width="3" stroke-linecap="round" stroke-linejoin="round" stroke-miterlimit="10" points="
	24.036,18.823 24.036,15.815 32.25,15.815 32.25,18.823 "/>
<polyline fill="none" stroke="#323232" stroke-width="3" stroke-linecap="round" stroke-linejoin="round" stroke-miterlimit="10" points="
	32.095,50.667 17.159,50.667 17.159,20.216 37.263,20.216 "/>
<polyline fill="none" stroke="#323232" stroke-width="3" stroke-linecap="round" stroke-linejoin="round" stroke-miterlimit="10" points="
	44.196,26.965 44.196,22.565 52.41,22.565 52.41,25.573 "/>
<polyline fill="none" stroke="#323232" stroke-width="3" stroke-linecap="round" stroke-linejoin="round" stroke-miterlimit="10" points="
	44.196,26.965 59.287,26.965 59.287,57.416 39.183,57.416 "/>
<polygon fill="#FFFFFF" points="35.47,65.859 49.581,34.365 37.726,34.365 40.976,10.586 26.865,42.083 38.72,42.083 "/>
<polygon fill="none" stroke="#323232" stroke-width="3" stroke-linecap="round" stroke-linejoin="round" stroke-miterlimit="10" points="
	35.47,65.859 49.581,34.365 37.726,34.365 40.976,10.586 26.865,42.083 38.72,42.083 "/>
<polyline fill="none" stroke="#323232" stroke-width="3" stroke-linecap="round" stroke-miterlimit="10" points="26.866,42.082 
	38.721,42.082 35.471,65.859 "/>
<polyline fill="none" stroke="#323232" stroke-width="3" stroke-linecap="round" stroke-miterlimit="10" points="49.581,34.364 
	37.726,34.364 40.976,10.587 "/>
<rect y="0" fill="none" width="76.446" height="76.446"/>
</svg>
