<?xml version="1.0" encoding="utf-8"?>
<!-- Generator: Adobe Illustrator 16.0.0, SVG Export Plug-In . SVG Version: 6.00 Build 0)  -->
<!DOCTYPE svg PUBLIC "-//W3C//DTD SVG 1.1//EN" "http://www.w3.org/Graphics/SVG/1.1/DTD/svg11.dtd">
<svg version="1.1" id="Layer_1" xmlns="http://www.w3.org/2000/svg" xmlns:xlink="http://www.w3.org/1999/xlink" x="0px" y="0px"
	 width="60.727px" height="53.123px" viewBox="0 0 60.727 53.123" enable-background="new 0 0 60.727 53.123" xml:space="preserve">
<path fill="#323232" d="M45.903,16.536c0.829,0,1.5-0.671,1.5-1.5V4.729C47.403,2.121,45.281,0,42.674,0H17.729
	C15.121,0,13,2.121,13,4.729v43.666c0,2.607,2.121,4.729,4.729,4.729h24.944c2.607,0,4.729-2.121,4.729-4.729V19.97
	c0-0.829-0.671-1.5-1.5-1.5s-1.5,0.671-1.5,1.5v28.424c0,0.954-0.775,1.729-1.729,1.729H17.729c-0.954,0-1.729-0.774-1.729-1.729
	V4.729C16,3.775,16.775,3,17.729,3h24.944c0.954,0,1.729,0.775,1.729,1.729v10.307C44.403,15.865,45.074,16.536,45.903,16.536"/>
<path fill="#323232" d="M40.686,20.551c0.829,0,1.5-0.671,1.5-1.5V8.167c0-0.828-0.671-1.5-1.5-1.5H19.717
	c-0.828,0-1.5,0.672-1.5,1.5v31.986c0,0.828,0.672,1.5,1.5,1.5h20.968c0.829,0,1.5-0.672,1.5-1.5V26.562c0-0.828-0.671-1.5-1.5-1.5
	s-1.5,0.672-1.5,1.5v12.091H21.217V9.667h17.968v9.385C39.186,19.88,39.856,20.551,40.686,20.551"/>
<path fill="#323232" d="M27.84,45.749c0,1.305,1.057,2.362,2.362,2.362s2.362-1.058,2.362-2.362s-1.057-2.362-2.362-2.362
	S27.84,44.444,27.84,45.749"/>
<path fill="#FFFFFF" d="M35.011,32.718L58.624,8.305l-3.042-3.043L33.661,25.554l-5.884-4.475l-3.262,3.262l7.826,8.349
	C33.061,33.458,34.275,33.471,35.011,32.718"/>
<path fill="#03BBD5" d="M33.689,34.774L33.689,34.774c-0.921,0-1.812-0.387-2.442-1.059l-8.82-9.409l5.216-5.215l5.923,4.505
	L55.622,3.181l5.104,5.107L36.089,33.761C35.448,34.416,34.598,34.774,33.689,34.774 M26.602,24.374l6.833,7.29
	c0.168,0.179,0.332,0.181,0.503,0.005L56.52,8.323l-0.979-0.98L33.756,27.51l-5.845-4.445L26.602,24.374z"/>
<rect fill="none" width="60.727" height="53.123"/>
</svg>
