<?xml version="1.0" encoding="utf-8"?>
<!-- Generator: Adobe Illustrator 16.0.4, SVG Export Plug-In . SVG Version: 6.00 Build 0)  -->
<!DOCTYPE svg PUBLIC "-//W3C//DTD SVG 1.1//EN" "http://www.w3.org/Graphics/SVG/1.1/DTD/svg11.dtd">
<svg version="1.1" id="Layer_1" xmlns="http://www.w3.org/2000/svg" xmlns:xlink="http://www.w3.org/1999/xlink" x="0px" y="0px"
	 width="56.052px" height="48.338px" viewBox="0 0 56.052 48.338" enable-background="new 0 0 56.052 48.338" xml:space="preserve">
<path fill="#323232" d="M34.252,48.338c-5.311,0-7.729-2.26-9.967-5.288c-1.09,0.12-2.163,0.181-3.202,0.181
	C9.458,43.23,0,36.547,0,28.331c0-8.215,9.458-14.898,21.083-14.898c0.829,0,1.5,0.672,1.5,1.5c0,0.828-0.671,1.5-1.5,1.5
	C11.112,16.433,3,21.771,3,28.331c0,6.562,8.112,11.899,18.083,11.899c1.204,0,2.411-0.087,3.69-0.265
	c0.561-0.077,1.108,0.161,1.432,0.618c1.892,2.671,3.315,4.404,6.785,4.712c-0.865-1.438-1.589-3.511-1.503-6.38
	c0.016-0.541,0.323-1.031,0.802-1.283c4.371-2.295,6.877-5.685,6.877-9.302c0-0.828,0.671-1.5,1.5-1.5s1.5,0.672,1.5,1.5
	c0,4.526-2.784,8.683-7.676,11.514c0.167,4.094,2.491,5.517,2.596,5.578c0.56,0.33,0.853,0.986,0.713,1.619s-0.66,1.111-1.305,1.176
	C35.693,48.299,34.948,48.338,34.252,48.338"/>
<path fill="#03BBD5" d="M40.121,0c-8.784,0-15.93,5.411-15.93,12.061c0,3.058,1.542,6.004,4.267,8.223
	c-0.685,1.552-1.798,1.768-2.204,1.846c-0.633,0.122-1.117,0.636-1.202,1.274c-0.085,0.64,0.248,1.262,0.827,1.545
	c0.088,0.044,2.199,1.062,4.905,1.062c2.298,0,4.396-0.739,6.116-2.146c1.081,0.171,2.162,0.257,3.221,0.257
	c8.784,0,15.93-5.411,15.93-12.062C56.051,5.411,48.905,0,40.121,0 M40.121,21.123c-1.109,0-2.25-0.111-3.39-0.331
	c-0.481-0.096-0.972,0.054-1.322,0.39c-1.266,1.214-2.822,1.83-4.625,1.83c-0.164,0-0.326-0.005-0.484-0.015
	c0.626-0.782,1.093-1.758,1.377-2.903c0.15-0.605-0.09-1.241-0.602-1.595c-2.505-1.732-3.884-4.019-3.884-6.438
	C27.191,7.065,32.992,3,40.121,3c7.13,0,12.93,4.065,12.93,9.061C53.051,17.058,47.251,21.123,40.121,21.123"/>
<path fill="#03BBD5" d="M40.121,10.229c-1.012,0-1.832,0.82-1.832,1.832c0,1.012,0.82,1.832,1.832,1.832s1.832-0.82,1.832-1.832
	C41.953,11.05,41.133,10.229,40.121,10.229"/>
<path fill="#03BBD5" d="M46.835,10.229c-1.012,0-1.832,0.82-1.832,1.832c0,1.012,0.82,1.832,1.832,1.832s1.832-0.82,1.832-1.832
	C48.667,11.05,47.847,10.229,46.835,10.229"/>
<path fill="#03BBD5" d="M33.407,10.229c-1.012,0-1.832,0.82-1.832,1.832c0,1.012,0.82,1.832,1.832,1.832s1.832-0.82,1.832-1.832
	C35.239,11.05,34.419,10.229,33.407,10.229"/>
<rect fill="none" width="56.051" height="48.338"/>
</svg>
