<?xml version="1.0" encoding="utf-8"?>
<!-- Generator: Adobe Illustrator 16.0.0, SVG Export Plug-In . SVG Version: 6.00 Build 0)  -->
<!DOCTYPE svg PUBLIC "-//W3C//DTD SVG 1.1//EN" "http://www.w3.org/Graphics/SVG/1.1/DTD/svg11.dtd">
<svg version="1.1" id="Layer_1" xmlns="http://www.w3.org/2000/svg" xmlns:xlink="http://www.w3.org/1999/xlink" x="0px" y="0px"
	 width="68.831px" height="68.832px" viewBox="0 0 68.831 68.832" enable-background="new 0 0 68.831 68.832" xml:space="preserve">
<path fill="#323232" d="M63.367,32.63L36.201,5.464c-0.954-0.954-2.616-0.956-3.572,0L5.463,32.63
	c-0.477,0.476-0.74,1.111-0.74,1.786s0.263,1.31,0.74,1.786l27.166,27.167c0.478,0.477,1.112,0.738,1.786,0.738
	c0.675,0,1.309-0.262,1.786-0.739l27.165-27.165c0.478-0.478,0.74-1.112,0.74-1.787S63.844,33.106,63.367,32.63 M34.415,60.912
	L17.889,44.386H50.94L34.415,60.912z M17.889,24.446L34.415,7.92L50.94,24.446H17.889z"/>
<path fill="#323232" d="M30.897,51.818c-0.475,0-0.86,0.366-0.86,0.819c0,0.454,0.385,0.821,0.86,0.821
	c0.475,0,0.86-0.367,0.86-0.821C31.757,52.185,31.372,51.818,30.897,51.818"/>
<path fill="#323232" d="M34.415,51.818c-0.475,0-0.86,0.366-0.86,0.819c0,0.454,0.385,0.821,0.86,0.821
	c0.475,0,0.859-0.367,0.859-0.821C35.274,52.185,34.89,51.818,34.415,51.818"/>
<path fill="#323232" d="M37.933,51.818c-0.476,0-0.86,0.366-0.86,0.819c0,0.454,0.385,0.821,0.86,0.821
	c0.475,0,0.859-0.367,0.859-0.821C38.792,52.185,38.407,51.818,37.933,51.818"/>
<path fill="#323232" d="M25.758,48.299c0.585,0,1.059-0.452,1.059-1.01s-0.474-1.009-1.059-1.009s-1.059,0.451-1.059,1.009
	S25.173,48.299,25.758,48.299"/>
<path fill="#323232" d="M30.086,48.299c0.585,0,1.059-0.452,1.059-1.01s-0.474-1.009-1.059-1.009s-1.059,0.451-1.059,1.009
	S29.501,48.299,30.086,48.299"/>
<path fill="#323232" d="M34.415,48.299c0.585,0,1.059-0.452,1.059-1.01S35,46.28,34.415,46.28s-1.059,0.451-1.059,1.009
	S33.83,48.299,34.415,48.299"/>
<path fill="#323232" d="M38.743,48.299c0.585,0,1.059-0.452,1.059-1.01s-0.474-1.009-1.059-1.009s-1.059,0.451-1.059,1.009
	S38.158,48.299,38.743,48.299"/>
<path fill="#323232" d="M43.071,48.299c0.585,0,1.06-0.452,1.06-1.01s-0.475-1.009-1.06-1.009s-1.059,0.451-1.059,1.009
	S42.486,48.299,43.071,48.299"/>
<path fill="#323232" d="M28.37,50.888c0.544,0,0.986-0.421,0.986-0.939c0-0.52-0.442-0.94-0.986-0.94
	c-0.544,0-0.986,0.421-0.986,0.94C27.383,50.467,27.825,50.888,28.37,50.888"/>
<path fill="#323232" d="M32.4,50.888c0.544,0,0.986-0.421,0.986-0.939c0-0.52-0.442-0.94-0.986-0.94
	c-0.544,0-0.986,0.421-0.986,0.94C31.414,50.467,31.855,50.888,32.4,50.888"/>
<path fill="#323232" d="M36.43,50.888c0.544,0,0.986-0.421,0.986-0.939c0-0.52-0.442-0.94-0.986-0.94s-0.985,0.421-0.985,0.94
	C35.444,50.467,35.886,50.888,36.43,50.888"/>
<path fill="#323232" d="M39.475,49.947c0,0.52,0.441,0.94,0.986,0.94c0.544,0,0.984-0.421,0.984-0.94
	c0-0.519-0.44-0.939-0.984-0.939C39.916,49.008,39.475,49.429,39.475,49.947"/>
<path fill="#03BBD5" d="M66.57,28.961L39.87,2.26C38.413,0.803,36.476,0,34.415,0s-3.999,0.803-5.456,2.26L2.26,28.961
	C0.803,30.418,0,32.355,0,34.416c0,2.061,0.803,3.998,2.26,5.455l26.7,26.701c1.457,1.457,3.394,2.26,5.456,2.26
	c2.061,0,3.998-0.803,5.455-2.26l26.7-26.701c1.457-1.457,2.261-3.395,2.261-5.455C68.831,32.355,68.027,30.418,66.57,28.961
	 M65.156,38.457l-26.7,26.701c-1.08,1.079-2.515,1.674-4.041,1.674c-1.527,0-2.961-0.595-4.042-1.674l-26.7-26.701
	c-2.228-2.229-2.228-5.854,0-8.082l26.7-26.701C31.454,2.595,32.888,2,34.415,2c1.526,0,2.961,0.595,4.041,1.674l26.7,26.701
	C67.385,32.603,67.385,36.229,65.156,38.457"/>
<path fill="#03BBD5" d="M32.476,15.825c0.006,1.133,0.878,2.048,1.948,2.043c1.07-0.005,1.937-0.926,1.93-2.061
	c-0.005-1.132-1.956-3.892-1.956-3.892S32.472,14.69,32.476,15.825"/>
<path fill="#03BBD5" d="M27.227,20.101c0.005,1.004,0.778,1.815,1.727,1.81c0.948-0.004,1.715-0.82,1.71-1.826
	c-0.005-1.003-1.734-3.449-1.734-3.449S27.224,19.095,27.227,20.101"/>
<path fill="#03BBD5" d="M38.166,20.101c0.005,1.004,0.778,1.815,1.728,1.81c0.947-0.004,1.715-0.82,1.71-1.826
	c-0.005-1.003-1.734-3.449-1.734-3.449S38.163,19.095,38.166,20.101"/>
<rect x="16.078" y="27.902" fill="#FFFFFF" width="2.298" height="12.283"/>
<path fill="#FFFFFF" d="M24.513,35.692v4.492h-2.299V27.902h4.51c1.965,0,4.018,1.245,4.018,3.895c0,2.667-2.053,3.896-4.018,3.896
	H24.513z M26.443,33.639c1.158,0,2-0.613,2-1.842c0-1.246-0.842-1.843-2-1.843h-1.93v3.685H26.443z"/>
<path fill="#FFFFFF" d="M34.763,34.587l3.264-6.686h2.28l-2.315,4.72c0.088-0.017,0.228-0.035,0.334-0.035
	c2.369,0,4.001,1.685,4.001,3.896c0,2.176-1.598,3.913-4.001,3.913c-2.387,0-4.001-1.754-4.001-3.931
	C34.324,35.78,34.482,35.148,34.763,34.587 M40.202,36.464c0-1.28-0.719-2.105-1.877-2.105c-1.159,0-1.878,0.825-1.878,2.105
	c0,1.281,0.719,2.106,1.878,2.106C39.483,38.57,40.202,37.745,40.202,36.464"/>
<path fill="#FFFFFF" d="M44.397,36.446c0-1.333,0.685-2.508,1.772-3.035c-0.772-0.491-1.333-1.387-1.333-2.422
	c0-1.843,1.438-3.299,3.562-3.299s3.562,1.456,3.562,3.299c0,1.035-0.562,1.931-1.334,2.422c1.088,0.527,1.772,1.702,1.772,3.035
	c0,2.211-1.597,3.949-4.001,3.949C45.995,40.396,44.397,38.657,44.397,36.446 M46.521,36.446c0,1.299,0.737,2.124,1.878,2.124
	s1.877-0.825,1.877-2.124c0-1.298-0.736-2.14-1.877-2.14S46.521,35.148,46.521,36.446 M46.906,31.042
	c0,0.877,0.598,1.526,1.492,1.526c0.896,0,1.491-0.649,1.491-1.526s-0.596-1.526-1.491-1.526
	C47.504,29.516,46.906,30.165,46.906,31.042"/>
<rect fill="none" width="68.831" height="68.832"/>
</svg>
