<?xml version="1.0" encoding="utf-8"?>
<!-- Generator: Adobe Illustrator 16.0.0, SVG Export Plug-In . SVG Version: 6.00 Build 0)  -->
<!DOCTYPE svg PUBLIC "-//W3C//DTD SVG 1.1//EN" "http://www.w3.org/Graphics/SVG/1.1/DTD/svg11.dtd">
<svg version="1.1" id="Layer_1" xmlns="http://www.w3.org/2000/svg" xmlns:xlink="http://www.w3.org/1999/xlink" x="0px" y="0px"
	 width="34.263px" height="55.063px" viewBox="0 0 34.263 55.063" enable-background="new 0 0 34.263 55.063" xml:space="preserve">
<path fill="#323232" d="M17.132,0C7.685,0,0,7.684,0,17.131c0,5.771,2.827,11.025,7.605,14.218v3.208
	c0,5.253,4.274,9.526,9.527,9.526s9.525-4.273,9.525-9.526V31.35c4.778-3.193,7.605-8.447,7.605-14.218
	C34.263,7.684,26.578,0,17.132,0 M24.386,29.239l-0.729,0.438v4.881c0,3.084-2.151,5.669-5.031,6.347l3.435-24.826
	c0.095-0.684-0.383-1.315-1.066-1.409c-0.687-0.092-1.316,0.382-1.41,1.067l-2.452,17.727l-2.453-17.727
	c-0.094-0.684-0.723-1.154-1.41-1.067c-0.683,0.094-1.161,0.725-1.067,1.409l3.435,24.826c-2.88-0.678-5.032-3.263-5.032-6.347
	v-4.881l-0.728-0.438C5.571,26.653,3,22.127,3,17.131C3,9.339,9.34,3,17.132,3s14.131,6.339,14.131,14.131
	C31.263,22.127,28.691,26.653,24.386,29.239"/>
<path fill="#03BBD5" d="M24.779,46.657c-0.105-0.822-0.856-1.408-1.679-1.296l-12.321,1.584c-0.821,0.106-1.401,0.857-1.296,1.679
	c0.097,0.757,0.743,1.309,1.486,1.309c0.064,0,0.128-0.004,0.193-0.013l12.321-1.584C24.305,48.23,24.885,47.479,24.779,46.657"/>
<path fill="#03BBD5" d="M20.631,51.128l-7.381,0.948c-0.822,0.105-1.402,0.856-1.297,1.679c0.097,0.757,0.743,1.31,1.486,1.31
	c0.064,0,0.129-0.005,0.193-0.014l7.382-0.948c0.821-0.105,1.401-0.856,1.297-1.679C22.204,51.602,21.446,51.016,20.631,51.128"/>
<path fill="#03BBD5" d="M12.021,12.318c2.818-2.818,7.404-2.817,10.222,0c0.244,0.244,0.564,0.366,0.884,0.366
	s0.64-0.122,0.884-0.366c0.488-0.488,0.488-1.279,0-1.768c-3.792-3.792-9.963-3.794-13.757,0c-0.488,0.489-0.488,1.28,0,1.768
	C10.742,12.806,11.533,12.806,12.021,12.318"/>
<rect y="0" fill="none" width="34.263" height="55.063"/>
</svg>
