<?xml version="1.0" encoding="utf-8"?>
<!-- Generator: Adobe Illustrator 16.0.0, SVG Export Plug-In . SVG Version: 6.00 Build 0)  -->
<!DOCTYPE svg PUBLIC "-//W3C//DTD SVG 1.1//EN" "http://www.w3.org/Graphics/SVG/1.1/DTD/svg11.dtd">
<svg version="1.1" id="Layer_1" xmlns="http://www.w3.org/2000/svg" xmlns:xlink="http://www.w3.org/1999/xlink" x="0px" y="0px"
	 width="55.622px" height="57.423px" viewBox="0 0 55.622 57.423" enable-background="new 0 0 55.622 57.423" xml:space="preserve">
<path fill="#03BBD5" d="M55.372,11.57l-7.228-10.9c-0.028-0.043-0.067-0.076-0.101-0.116c-0.043-0.052-0.083-0.106-0.133-0.152
	c-0.044-0.041-0.096-0.073-0.145-0.108c-0.054-0.04-0.106-0.082-0.166-0.113c-0.057-0.031-0.116-0.05-0.177-0.072
	c-0.059-0.023-0.115-0.049-0.177-0.063c-0.065-0.016-0.132-0.02-0.2-0.027C46.996,0.015,46.947,0,46.895,0H8.748
	C8.704,0,8.663,0.014,8.62,0.017C8.537,0.023,8.454,0.028,8.375,0.048C8.351,0.055,8.329,0.066,8.306,0.073
	c-0.1,0.03-0.197,0.066-0.287,0.117C7.995,0.205,7.974,0.224,7.95,0.238C7.87,0.29,7.792,0.342,7.723,0.409
	c-0.041,0.039-0.074,0.086-0.11,0.129C7.575,0.583,7.532,0.621,7.499,0.67L0.251,11.569c-0.316,0.475-0.335,1.087-0.05,1.581
	l11.024,19.071c0.417-1.147,0.947-2.237,1.582-3.259L3.265,12.456l5.347-8.042l10.081,18.732c0.854-0.517,1.75-0.964,2.69-1.332
	l-4.259-7.914h21.394l-4.262,7.92c0.939,0.369,1.835,0.818,2.688,1.335l7.004-13.014l3.081-5.724l5.328,8.037l-9.543,16.509
	c0.635,1.022,1.165,2.112,1.582,3.258l11.024-19.07C55.705,12.657,55.687,12.045,55.372,11.57 M40.133,10.899H15.51l-3.274-6.084
	L11.258,3h33.126L40.133,10.899z"/>
<path fill="#323232" d="M27.811,19.09c-10.568,0-19.167,8.598-19.167,19.166c0,10.568,8.599,19.167,19.167,19.167
	c10.569,0,19.167-8.599,19.167-19.167C46.978,27.688,38.38,19.09,27.811,19.09 M27.811,54.423c-8.914,0-16.167-7.253-16.167-16.167
	S18.896,22.09,27.811,22.09c8.915,0,16.167,7.252,16.167,16.166S36.726,54.423,27.811,54.423"/>
<path fill="#323232" d="M31.945,32.3l-4.135-6.813L23.676,32.3l-7.958,1.972l5.402,5.896l-0.783,8.32l7.474-3.46l7.474,3.46
	l-0.782-8.32l5.401-5.896L31.945,32.3z M32.388,44.392l-4.577-2.118l-4.577,2.118l0.479-5.096l-3.308-3.61l4.873-1.206l2.533-4.175
	l2.533,4.175l4.873,1.206l-3.308,3.61L32.388,44.392z"/>
<rect fill="none" width="55.622" height="57.423"/>
</svg>
