<?xml version="1.0" encoding="utf-8"?>
<!-- Generator: Adobe Illustrator 16.0.0, SVG Export Plug-In . SVG Version: 6.00 Build 0)  -->
<!DOCTYPE svg PUBLIC "-//W3C//DTD SVG 1.1//EN" "http://www.w3.org/Graphics/SVG/1.1/DTD/svg11.dtd">
<svg version="1.1" id="Layer_1" xmlns="http://www.w3.org/2000/svg" xmlns:xlink="http://www.w3.org/1999/xlink" x="0px" y="0px"
	 width="64.357px" height="65.128px" viewBox="0 0 64.357 65.128" enable-background="new 0 0 64.357 65.128" xml:space="preserve">
<path fill="#03BBD5" d="M2.017,47.325L2.001,2h60.356L62.34,47.325L32.179,62.878L2.017,47.325z M0,0l0.017,48.542l32.162,16.585
	L64.34,48.543L64.357,0H0z"/>
<path fill="#323232" d="M4.86,4.658l0.073,40.497l27.246,14.021l27.246-14.021l0.073-40.497H4.86z M56.492,7.658l-0.034,18.877H7.9
	L7.866,7.658H56.492z M32.179,55.802L7.93,43.322l-0.004-2.688h48.506l-0.004,2.688L32.179,55.802z"/>
<polygon fill="#323232" points="12.424,16.931 12.424,23.68 10.486,23.68 10.486,11.781 12.237,11.781 14.413,17.986 16.589,11.781 
	18.34,11.781 18.34,23.68 16.402,23.68 16.402,16.931 15.042,20.67 13.784,20.67 "/>
<rect x="20.142" y="11.781" fill="#323232" width="1.972" height="11.899"/>
<polygon fill="#323232" points="23.899,11.78 25.871,11.78 25.871,21.911 29.441,21.911 29.441,23.679 23.899,23.679 "/>
<path fill="#323232" d="M33.045,20.365l1.972-0.103v0.324c0,1.07,0.408,1.529,1.088,1.529c0.681,0,1.088-0.459,1.088-1.529v-0.324
	c0-0.934-0.272-1.359-1.189-1.648l-0.646-0.204c-1.733-0.544-2.328-1.48-2.328-3.383v-0.238c0-1.921,0.866-3.213,2.94-3.213
	c2.006,0,2.872,1.174,2.94,3.264v0.306l-1.972,0.085v-0.425c0-0.986-0.307-1.462-0.969-1.462c-0.663,0-0.969,0.476-0.969,1.462
	v0.221c0,0.935,0.289,1.377,1.189,1.649l0.612,0.187c1.768,0.544,2.362,1.513,2.362,3.399v0.306c0,2.074-1.071,3.316-3.06,3.316
	s-3.06-1.242-3.06-3.316V20.365z"/>
<polygon fill="#323232" points="39.914,11.78 46.169,11.78 46.169,13.549 44.028,13.549 44.028,23.679 42.056,23.679 42.056,13.549 
	39.914,13.549 "/>
<path fill="#323232" d="M47.581,23.68v-11.9h2.855c2.143,0,3.213,1.173,3.213,3.706v4.488c0,2.533-1.07,3.706-3.213,3.706H47.581z
	 M50.437,21.911c0.851,0,1.241-0.476,1.241-2.022v-4.318c0-1.547-0.391-2.022-1.241-2.022h-0.884v8.362H50.437z"/>
<path fill="#FFFFFF" d="M10.202,35.064V34.84c0-0.887,0.244-1.438,0.703-1.682c-0.347-0.225-0.53-0.663-0.53-1.295V31.64
	c0-1.162,0.56-1.804,1.519-1.804c0.958,0,1.518,0.642,1.518,1.804v0.224c0,0.632-0.183,1.07-0.53,1.295
	c0.459,0.244,0.704,0.795,0.704,1.682v0.225c0,1.356-0.531,2.15-1.692,2.15C10.732,37.215,10.202,36.421,10.202,35.064
	 M11.302,34.851v0.193c0,0.866,0.184,1.162,0.592,1.162c0.407,0,0.591-0.296,0.591-1.162v-0.193c0-0.867-0.184-1.162-0.591-1.162
	C11.486,33.688,11.302,33.983,11.302,34.851 M11.445,31.649v0.234c0,0.561,0.133,0.827,0.449,0.827c0.316,0,0.448-0.266,0.448-0.827
	v-0.234c0-0.561-0.132-0.825-0.448-0.825C11.578,30.824,11.445,31.088,11.445,31.649"/>
<polygon fill="#FFFFFF" points="15.143,37.093 15.143,36.083 16.06,36.083 16.06,31.242 15.143,31.66 15.143,30.559 16.285,29.958 
	17.192,29.958 17.192,36.083 18.099,36.083 18.099,37.093 "/>
<path fill="#FFFFFF" d="M22.842,35.177c0,1.314-0.59,2.038-1.661,2.038c-1.07,0-1.661-0.724-1.661-2.038v-3.302
	c0-1.316,0.591-2.039,1.661-2.039c1.071,0,1.661,0.723,1.661,2.039V35.177z M20.651,35.237c0,0.755,0.204,0.969,0.53,0.969
	c0.326,0,0.53-0.214,0.53-0.969v-3.425c0-0.754-0.204-0.968-0.53-0.968c-0.326,0-0.53,0.214-0.53,0.968V35.237z"/>
<path fill="#FFFFFF" d="M26.235,33.301h1.927v1.661c0,1.52-0.765,2.253-1.927,2.253s-1.926-0.733-1.926-2.253v-2.874
	c0-1.518,0.764-2.253,1.926-2.253s1.927,0.735,1.927,2.253v0.225l-1.183,0.051v-0.123c0-0.938-0.234-1.345-0.744-1.345
	c-0.51,0-0.744,0.407-0.744,1.345v2.569c0,0.938,0.234,1.346,0.744,1.346c0.51,0,0.744-0.408,0.744-1.346v-0.488h-0.744V33.301z"/>
<rect x="29.611" y="33.301" fill="#FFFFFF" width="2.405" height="0.958"/>
<path fill="#FFFFFF" d="M36.701,35.196c0,1.305-0.581,2.019-1.662,2.019c-1.08,0-1.661-0.714-1.661-2.038V34.81l1.132-0.05v0.386
	c0,0.836,0.184,1.061,0.529,1.061c0.347,0,0.531-0.225,0.531-1.061v-0.57c0-1.05-0.144-1.284-0.479-1.284
	c-0.234,0-0.347,0.203-0.388,0.458h-1.111v-3.791h2.845v1.009h-1.713v1.661c0.133-0.214,0.367-0.336,0.703-0.336
	c0.826,0,1.274,0.682,1.274,2.262V35.196z"/>
<polygon fill="#FFFFFF" points="38.273,37.093 38.273,36.083 39.19,36.083 39.19,31.242 38.273,31.66 38.273,30.559 39.416,29.958 
	40.323,29.958 40.323,36.083 41.229,36.083 41.229,37.093 "/>
<path fill="#FFFFFF" d="M45.998,35.085c0,1.365-0.571,2.13-1.682,2.13c-1.111,0-1.683-0.765-1.683-2.13v-0.307
	c0-0.703,0.093-1.223,0.276-1.721l1.121-3.099h1.203l-1.011,2.731c0.052-0.02,0.144-0.041,0.215-0.041
	c1.029,0,1.56,0.816,1.56,2.212V35.085z M43.766,35.085c0,0.835,0.144,1.131,0.551,1.131s0.551-0.296,0.551-1.131v-0.307
	c0-0.835-0.144-1.131-0.551-1.131s-0.551,0.296-0.551,1.131V35.085z"/>
<rect x="47.474" y="35.849" fill="#FFFFFF" width="1.143" height="1.244"/>
<polygon fill="#03BBD5" points="32.179,42.384 33.436,45.201 36.54,45.552 34.212,47.593 34.874,50.678 32.179,49.069 
	29.484,50.678 30.146,47.593 27.818,45.552 30.922,45.201 "/>
<rect fill="none" width="64.357" height="65.128"/>
<path fill="#FFFFFF" d="M53.45,35.024c0,1.365-0.571,2.129-1.682,2.129c-1.111,0-1.683-0.764-1.683-2.129v-0.307
	c0-0.703,0.093-1.223,0.276-1.721l1.121-3.1h1.203l-1.011,2.731c0.052-0.02,0.144-0.041,0.215-0.041c1.029,0,1.56,0.816,1.56,2.213
	V35.024z M51.218,35.024c0,0.834,0.144,1.131,0.551,1.131s0.551-0.297,0.551-1.131v-0.307c0-0.836-0.144-1.131-0.551-1.131
	s-0.551,0.295-0.551,1.131V35.024z"/>
</svg>
