<?xml version="1.0" encoding="utf-8"?>
<!-- Generator: Adobe Illustrator 16.0.0, SVG Export Plug-In . SVG Version: 6.00 Build 0)  -->
<!DOCTYPE svg PUBLIC "-//W3C//DTD SVG 1.1//EN" "http://www.w3.org/Graphics/SVG/1.1/DTD/svg11.dtd">
<svg version="1.1" id="Layer_1" xmlns="http://www.w3.org/2000/svg" xmlns:xlink="http://www.w3.org/1999/xlink" x="0px" y="0px"
	 width="76.446px" height="76.446px" viewBox="0 0 76.446 76.446" enable-background="new 0 0 76.446 76.446" xml:space="preserve">
<circle fill="none" stroke="#03BBD5" stroke-width="3" stroke-linecap="round" stroke-linejoin="round" stroke-miterlimit="10" cx="38.223" cy="38.223" r="36.723"/>
<circle fill="none" stroke="#323232" stroke-width="3" stroke-linecap="round" stroke-linejoin="round" stroke-miterlimit="10" cx="38.065" cy="38.223" r="7.34"/>
<path fill="#323232" d="M38.064,45.562c4.053,0,7.339-3.286,7.339-7.339c0-4.054-3.286-7.34-7.339-7.34V45.562z"/>
<path fill="none" stroke="#323232" stroke-width="3" stroke-linecap="round" stroke-linejoin="round" stroke-miterlimit="10" d="
	M48,47.506c5.127-5.127,5.127-13.438,0-18.565"/>
<path fill="none" stroke="#323232" stroke-width="3" stroke-linecap="round" stroke-linejoin="round" stroke-miterlimit="10" d="
	M51.547,51.837c7.519-7.52,7.519-19.708,0-27.227"/>
<path fill="none" stroke="#323232" stroke-width="3" stroke-linecap="round" stroke-linejoin="round" stroke-miterlimit="10" d="
	M55.126,56.011c9.823-9.824,9.823-25.751,0-35.574"/>
<line fill="none" stroke="#323232" stroke-width="3" stroke-linecap="round" stroke-linejoin="round" stroke-miterlimit="10" x1="20.473" y1="21.715" x2="27.631" y2="28.874"/>
<line fill="none" stroke="#323232" stroke-width="3" stroke-linecap="round" stroke-linejoin="round" stroke-miterlimit="10" x1="15.579" y1="29.485" x2="24.893" y2="33.45"/>
<line fill="none" stroke="#323232" stroke-width="3" stroke-linecap="round" stroke-linejoin="round" stroke-miterlimit="10" x1="15.915" y1="47.781" x2="25.332" y2="44.067"/>
<line fill="none" stroke="#323232" stroke-width="3" stroke-linecap="round" stroke-linejoin="round" stroke-miterlimit="10" x1="13.953" y1="38.989" x2="24.076" y2="38.989"/>
<line fill="none" stroke="#323232" stroke-width="3" stroke-linecap="round" stroke-linejoin="round" stroke-miterlimit="10" x1="21.557" y1="55.814" x2="28.715" y2="48.657"/>
<rect y="0" fill="none" width="76.446" height="76.446"/>
</svg>
