<?xml version="1.0" encoding="utf-8"?>
<!-- Generator: Adobe Illustrator 16.0.4, SVG Export Plug-In . SVG Version: 6.00 Build 0)  -->
<!DOCTYPE svg PUBLIC "-//W3C//DTD SVG 1.1//EN" "http://www.w3.org/Graphics/SVG/1.1/DTD/svg11.dtd">
<svg version="1.1" id="Layer_1" xmlns="http://www.w3.org/2000/svg" xmlns:xlink="http://www.w3.org/1999/xlink" x="0px" y="0px"
	 width="49.272px" height="49.272px" viewBox="0 0 49.272 49.272" enable-background="new 0 0 49.272 49.272" xml:space="preserve">
<path fill="#323232" d="M26.248,11.371c-6.858,0-12.23,3-12.23,6.829v1.069c-1.981,1.21-3.185,2.825-3.185,4.63v1.458
	c0,0.755,0.216,1.476,0.603,2.148c-0.387,0.673-0.603,1.394-0.603,2.148v1.458c0,3.828,5.373,6.827,12.231,6.827
	c6.859,0,12.232-2.999,12.232-6.827v-1.458c0-0.755-0.217-1.476-0.604-2.148c0.387-0.673,0.604-1.394,0.604-2.148v-1.07
	c1.979-1.209,3.184-2.824,3.184-4.629V18.2C38.479,14.371,33.106,11.371,26.248,11.371 M14.314,21.168
	c0.39,1,1.164,1.909,2.231,2.684c0.614,0.446,1.323,0.846,2.116,1.192c2.073,0.904,4.694,1.442,7.586,1.442
	c1.488,0,2.9-0.148,4.208-0.408c0.795-0.158,1.547-0.359,2.25-0.6c-0.319,0.416-0.749,0.809-1.276,1.163
	c-1.231,0.826-2.975,1.463-5.007,1.801c-0.08,0.015-0.157,0.03-0.238,0.042c-0.103,0.017-0.206,0.028-0.309,0.043
	c-0.884,0.125-1.82,0.199-2.812,0.199c-0.993,0-1.931-0.074-2.815-0.199c-0.101-0.015-0.205-0.026-0.305-0.041
	c-0.082-0.014-0.161-0.029-0.242-0.044c-2.031-0.339-3.774-0.976-5.003-1.801c-0.546-0.367-0.986-0.771-1.309-1.204
	c-0.391-0.522-0.611-1.085-0.611-1.675C12.778,22.81,13.347,21.924,14.314,21.168 M26.423,34.198
	c-0.08,0.014-0.157,0.028-0.238,0.042c-0.103,0.015-0.206,0.026-0.309,0.041c-0.884,0.126-1.82,0.199-2.812,0.199
	c-0.993,0-1.931-0.073-2.815-0.199c-0.101-0.015-0.205-0.026-0.305-0.041c-0.082-0.014-0.161-0.029-0.242-0.043
	c-4.027-0.672-6.923-2.511-6.923-4.68c0-0.131,0.02-0.259,0.041-0.388c2.165,1.852,5.904,3.055,10.244,3.055
	s8.08-1.203,10.245-3.054c0.02,0.128,0.04,0.256,0.04,0.387C33.349,31.687,30.451,33.527,26.423,34.198 M34.288,21.146
	c-0.489,0.296-1.048,0.563-1.664,0.798c-0.897,0.343-1.912,0.617-3.018,0.801c-0.079,0.014-0.157,0.029-0.237,0.042
	c-0.102,0.015-0.207,0.027-0.31,0.041c-0.882,0.126-1.819,0.2-2.812,0.2c-0.096,0-0.185-0.008-0.279-0.01
	c-0.86-0.012-1.682-0.074-2.457-0.182c-0.025-0.003-0.053-0.004-0.078-0.008c-0.102-0.014-0.205-0.026-0.305-0.041
	c-0.082-0.013-0.161-0.029-0.242-0.043c-2.835-0.473-5.105-1.525-6.203-2.863c-0.404-0.492-0.646-1.023-0.701-1.578
	c-0.007-0.08-0.019-0.158-0.019-0.238c0-2.737,4.604-4.956,10.285-4.956s10.285,2.219,10.285,4.956
	C36.533,19.232,35.689,20.301,34.288,21.146"/>
<path fill="#323232" d="M31.223,17.22c-1.224-0.742-2.788-0.851-4.813-0.098l-0.816,0.304c-0.97,0.361-1.684,0.341-2.25-0.003
	c-0.521-0.315-0.575-0.802,0.224-1.226c0.774-0.412,1.677-0.401,2.537-0.072l1.334-0.967c-1.357-0.547-2.877-0.586-4.231-0.157
	l-1.121-0.68l-1.549,0.822l1.077,0.653c-1.116,0.867-0.893,1.84,0.155,2.476c1.28,0.777,2.86,0.813,4.707,0.129l0.813-0.304
	c1.031-0.38,1.815-0.358,2.394-0.008c0.565,0.344,0.545,0.882-0.303,1.332c-0.858,0.456-1.904,0.51-2.996,0.123l-1.357,0.966
	c1.537,0.573,3.177,0.595,4.605,0.151l1.135,0.688l1.548-0.823l-1.059-0.642C32.507,18.994,32.454,17.967,31.223,17.22"/>
<path fill="#03BBD5" d="M24.636,0C11.052,0,0,11.051,0,24.635c0,13.585,11.052,24.637,24.636,24.637s24.636-11.052,24.636-24.637
	C49.271,11.051,38.22,0,24.636,0 M3,24.635c0-5.426,2.013-10.388,5.325-14.19l30.502,30.502c-3.803,3.312-8.765,5.325-14.191,5.325
	C12.706,46.272,3,36.566,3,24.635 M40.948,38.826L10.446,8.324C14.248,5.012,19.21,3,24.636,3c11.93,0,21.636,9.706,21.636,21.635
	C46.271,30.062,44.26,35.024,40.948,38.826"/>
<rect y="0" fill="none" width="49.272" height="49.272"/>
</svg>
