<?xml version="1.0" encoding="utf-8"?>
<!-- Generator: Adobe Illustrator 16.0.0, SVG Export Plug-In . SVG Version: 6.00 Build 0)  -->
<!DOCTYPE svg PUBLIC "-//W3C//DTD SVG 1.1//EN" "http://www.w3.org/Graphics/SVG/1.1/DTD/svg11.dtd">
<svg version="1.1" id="Layer_1" xmlns="http://www.w3.org/2000/svg" xmlns:xlink="http://www.w3.org/1999/xlink" x="0px" y="0px"
	 width="71.812px" height="81.375px" viewBox="0 0 71.812 81.375" enable-background="new 0 0 71.812 81.375" xml:space="preserve">
<path d="M0,13.029c0,0,7.89,53.088,30.736,67.059c3.122,1.809,6.662,1.723,9.039-0.328C49.308,71.542,59.179,57.7,61.972,51.29
	c5.25,0.5,8.867-0.785,8.867-0.785l-0.033-10.132c0,0-7.699,0.145-9.166,0.167c-11.168,0.166-18.875-13.385-14.334-24.834
	c3.146-7.931,8.68-2.215,9.666,0.25s0.77,9.07-0.666,13.916c1.75,4.084,11.25,6.25,13.416,2.834c2.668-7.5,3.834-21-3.082-28
	c-4.562-4.617-16.016-6.962-24.398-1.702c-8.383,5.26-8.219,16.437-7.562,22.024c0.658,5.589,2.466,17.422,13.642,23.997
	c0.986,1.15-12.25,18.344-12.984,17.588c-16.436-16.93-20.874-53.418-20.874-53.418L0,13.029z"/>
<g>
</g>
<g>
</g>
<g>
</g>
<g>
</g>
<g>
</g>
<g>
</g>
</svg>
