<?xml version="1.0" encoding="utf-8"?>
<!-- Generator: Adobe Illustrator 16.0.0, SVG Export Plug-In . SVG Version: 6.00 Build 0)  -->
<!DOCTYPE svg PUBLIC "-//W3C//DTD SVG 1.1//EN" "http://www.w3.org/Graphics/SVG/1.1/DTD/svg11.dtd">
<svg version="1.1" id="Layer_1" xmlns="http://www.w3.org/2000/svg" xmlns:xlink="http://www.w3.org/1999/xlink" x="0px" y="0px"
	 width="50.099px" height="55.468px" viewBox="0 0 50.099 55.468" enable-background="new 0 0 50.099 55.468" xml:space="preserve">
<path fill="#03BBD5" d="M48.718,7.868l-0.329-1.255L47.098,6.76C39.663,7.609,32.246,5.48,26.09,0.731L24.996,0l-0.988,0.731
	C17.854,5.48,10.441,7.61,3.001,6.76L1.71,6.613L1.38,7.868c-5.282,20.065,5.066,41.328,23.083,47.404l0.585,0.196l0.603-0.202
	C43.652,49.195,54,27.933,48.718,7.868 M25.049,52.301c-5.983-2.104-11.023-6.059-14.769-11.133l5.852-4.903l-1.926-2.299l-5.61,4.7
	c-5.011-8.157-6.954-18.59-4.618-28.803c7.5,0.536,14.802-1.612,21.071-6.164c5.35,3.892,11.485,6.03,17.854,6.225l-8.467,7.094
	l1.927,2.299l9.98-8.363C49.869,28.678,40.68,46.806,25.049,52.301"/>
<polygon fill="#323232" points="21.206,30.198 21.206,33.123 30.113,33.123 30.113,30.198 27.334,30.198 27.334,18.757 
	25.012,18.757 21.206,20.684 21.206,22.781 24.037,22.76 24.037,30.198 "/>
<path fill="#323232" d="M37.394,30.469l3.743-4.071l-2.232,0.004c-0.111-5.706-3.767-10.769-9.178-12.652
	c-7.123-2.475-14.935,1.303-17.413,8.426c-1.2,3.451-0.985,7.163,0.606,10.452c1.592,3.289,4.369,5.761,7.82,6.962
	c1.48,0.515,2.999,0.762,4.5,0.762c4.488,0,8.809-2.216,11.395-6.12l-2.501-1.656c-2.694,4.065-7.797,5.785-12.409,4.181
	c-5.561-1.935-8.512-8.033-6.577-13.594c1.934-5.56,8.034-8.511,13.593-6.578c4.208,1.464,7.055,5.391,7.164,9.824l-2.199,0.004
	L37.394,30.469z"/>
<rect fill="none" width="50.098" height="55.468"/>
</svg>
