<?xml version="1.0" encoding="utf-8"?>
<!-- Generator: Adobe Illustrator 16.0.0, SVG Export Plug-In . SVG Version: 6.00 Build 0)  -->
<!DOCTYPE svg PUBLIC "-//W3C//DTD SVG 1.1//EN" "http://www.w3.org/Graphics/SVG/1.1/DTD/svg11.dtd">
<svg version="1.1" id="Layer_1" xmlns="http://www.w3.org/2000/svg" xmlns:xlink="http://www.w3.org/1999/xlink" x="0px" y="0px"
	 width="99.904px" height="83px" viewBox="0 0 99.904 83" enable-background="new 0 0 99.904 83" xml:space="preserve">
<polygon fill="#323232" points="31.378,25.09 27.626,21.656 26.688,22.681 31.345,26.943 34.115,23.915 33.211,23.087 "/>
<rect x="30.493" y="19.645" transform="matrix(0.6107 0.7919 -0.7919 0.6107 29.2048 -18.7274)" fill="#323232" width="6.313" height="1.389"/>
<polygon fill="#323232" points="38.962,16.395 36.807,17.533 36.192,16.368 38.594,15.1 38.022,14.014 34.391,15.931 37.338,21.517 
	38.567,20.869 37.38,18.618 39.535,17.48 "/>
<polygon fill="#323232" points="42.457,17.864 42.064,16.521 44.318,15.862 43.974,14.683 41.72,15.342 41.373,14.155 
	43.982,13.392 43.637,12.214 39.694,13.366 41.467,19.432 45.411,18.28 45.066,17.101 "/>
<path fill="#323232" d="M48.566,11.666l-2.386,0.129l0.342,6.302l1.386-0.075l-0.117-2.16l1.019-0.056
	c1.035-0.056,2.062-0.771,1.984-2.185C50.717,12.199,49.611,11.61,48.566,11.666 M48.571,14.591l-0.846,0.046l-0.093-1.692
	l0.847-0.046c0.505-0.028,0.896,0.221,0.928,0.797C49.439,14.273,49.075,14.564,48.571,14.591"/>
<path fill="#323232" d="M54.953,12.044l-2.36-0.38l-1.004,6.238l1.371,0.221l0.358-2.228l0.713,0.114l0.766,2.409l1.531,0.247
	l-0.97-2.661c0.66-0.187,1.216-0.682,1.367-1.618C56.951,12.979,55.987,12.211,54.953,12.044 M54.352,14.818l-0.837-0.135
	l0.255-1.587l0.837,0.135c0.499,0.081,0.838,0.364,0.746,0.935C55.261,14.736,54.851,14.898,54.352,14.818"/>
<path fill="#323232" d="M61.54,13.85c-1.339-0.563-2.611,0.047-3.186,1.41l-0.566,1.348c-0.572,1.363-0.116,2.7,1.224,3.263
	c1.339,0.562,2.61-0.047,3.186-1.411l0.566-1.347C63.336,15.749,62.88,14.413,61.54,13.85 M61.433,16.69l-0.469,1.114
	c-0.369,0.882-0.896,1.179-1.479,0.935c-0.582-0.245-0.738-0.829-0.367-1.71l0.469-1.115c0.369-0.881,0.896-1.179,1.479-0.934
	C61.647,15.225,61.804,15.809,61.433,16.69"/>
<path fill="#323232" d="M67.164,21.891l0.86-1.182c0.871-1.196,0.731-2.602-0.441-3.456c-1.174-0.856-2.554-0.555-3.425,0.642
	l-0.86,1.181c-0.869,1.196-0.731,2.602,0.441,3.457C64.912,23.388,66.293,23.087,67.164,21.891 M64.461,21.541
	c-0.511-0.371-0.526-0.976,0.035-1.749l0.711-0.978c0.563-0.772,1.146-0.941,1.654-0.57c0.511,0.372,0.528,0.977-0.035,1.749
	l-0.711,0.978C65.553,21.744,64.973,21.913,64.461,21.541"/>
<polygon fill="#323232" points="73.001,24.333 73.924,23.524 71.217,20.435 66.464,24.601 67.38,25.645 69.295,23.968 
	70.902,25.801 71.825,24.992 70.218,23.158 71.21,22.29 "/>
<path fill="#323232" d="M31.275,64.566c0.392,0.317,0.814,0.498,1.25,0.55l0.142,0.812l1.089-0.185l-0.139-0.786
	c0.399-0.164,0.785-0.454,1.109-0.854l0.92-1.136c0.93-1.147,0.866-2.559-0.263-3.473c-1.127-0.913-2.52-0.685-3.449,0.464
	l-0.92,1.135C30.083,62.243,30.147,63.652,31.275,64.566 M32.172,61.871l0.762-0.938c0.601-0.742,1.188-0.882,1.679-0.483
	c0.491,0.397,0.477,1.001-0.125,1.743l-0.76,0.938c-0.125,0.154-0.247,0.276-0.365,0.378l-0.101-0.604l-1.09,0.186l0.115,0.674
	c-0.08-0.029-0.163-0.086-0.24-0.147C31.557,63.218,31.57,62.613,32.172,61.871"/>
<path fill="#323232" d="M38.126,68.729c1.332,0.58,2.527,0.049,3.121-1.315l1.585-3.64l-1.273-0.555l-1.332,3.061
	c-0.509,1.166-0.929,1.633-1.614,1.334c-0.688-0.299-0.631-0.924-0.123-2.09l1.332-3.062l-1.273-0.555l-1.585,3.64
	C36.369,66.912,36.794,68.15,38.126,68.729"/>
<path fill="#323232" d="M43.563,70.407l0.539-1.099l1.921,0.334l0.138,1.215l1.432,0.248l-0.939-6.578l-1.424-0.245l-3.099,5.877
	L43.563,70.407z M45.636,66.167l0.261,2.299l-1.281-0.222L45.636,66.167z"/>
<polygon fill="#323232" points="53.998,70.882 53.926,69.658 51.216,69.818 50.915,64.741 49.528,64.823 49.902,71.125 "/>
<rect x="52.897" y="66.508" transform="matrix(-0.2302 -0.9731 0.9731 -0.2302 3.5624 137.2222)" fill="#323232" width="6.311" height="1.388"/>
<polygon fill="#323232" points="59.465,64.078 61.573,68.708 62.838,68.133 60.729,63.503 62.207,62.83 61.698,61.713 
	57.479,63.635 57.987,64.751 "/>
<polygon fill="#323232" points="68.123,64.842 69.199,63.963 67.386,61.74 66.693,57.855 65.526,58.809 66.009,61.152 
	63.808,60.212 62.641,61.165 66.31,62.619 "/>
<path fill="#323232" d="M49.952,5.39c-19.911,0-36.11,16.2-36.11,36.111s16.199,36.11,36.11,36.11s36.11-16.2,36.11-36.111
	S69.863,5.39,49.952,5.39 M49.952,8.39c14.401,0,26.679,9.246,31.224,22.111H18.728C23.273,17.635,35.55,8.39,49.952,8.39
	 M49.952,74.609c-14.402,0-26.678-9.244-31.224-22.109h62.447C76.63,65.365,64.354,74.609,49.952,74.609"/>
<path fill="#FFFFFF" d="M29.438,43.372l-1.855,5.598h1.111l0.352-1.143h1.855l0.352,1.143h1.111l-1.855-5.598H29.438z
	 M29.319,46.932l0.656-2.184l0.655,2.184H29.319z"/>
<polygon fill="#FFFFFF" points="32.647,44.309 34.134,44.309 34.134,48.97 35.182,48.97 35.182,44.309 36.669,44.309 36.669,43.372 
	32.647,43.372 "/>
<polygon fill="#FFFFFF" points="37.914,48.97 41.456,48.97 41.456,48.042 38.961,48.042 38.961,46.555 41.128,46.555 41.128,45.627 
	38.961,45.627 38.961,44.3 41.456,44.3 41.456,43.372 37.914,43.372 "/>
<polygon fill="#FFFFFF" points="33.315,40.851 37.743,40.851 37.743,39.692 34.625,39.692 34.625,37.832 37.333,37.832 
	37.333,36.673 34.625,36.673 34.625,35.014 37.743,35.014 37.743,33.855 33.315,33.855 "/>
<path fill="#FFFFFF" d="M70.912,39.802c-0.709,0-1.209-0.39-1.408-1.14l-1.3,0.19c0.329,1.359,1.359,2.119,2.708,2.119
	c1.489,0,2.409-0.89,2.409-2.119c0-1.079-0.609-1.809-2.049-2.059l-0.58-0.099c-0.689-0.121-0.989-0.43-0.989-0.93
	c0-0.46,0.33-0.859,0.989-0.859c0.64,0,1.03,0.379,1.169,0.989l1.29-0.2c-0.25-1.23-1.179-1.959-2.469-1.959
	c-1.479,0-2.289,0.969-2.289,2.039c0,1.13,0.67,1.809,1.979,2.039l0.58,0.099c0.73,0.13,1.061,0.47,1.061,0.98
	C72.012,39.392,71.612,39.802,70.912,39.802"/>
<polygon fill="#FFFFFF" points="25.148,47.202 24.092,43.372 23.077,43.372 22.022,47.202 21.038,43.372 19.927,43.372 
	21.479,48.97 22.509,48.97 23.581,45.027 24.66,48.97 25.691,48.97 27.243,43.372 26.131,43.372 "/>
<path fill="#FFFFFF" d="M63.064,39.423h2.317l0.44,1.428h1.389l-2.318-6.996h-1.339l-2.318,6.996h1.389L63.064,39.423z
	 M64.224,35.575l0.818,2.728h-1.639L64.224,35.575z"/>
<polygon fill="#FFFFFF" points="24.724,39.692 21.605,39.692 21.605,37.833 24.314,37.833 24.314,36.673 21.605,36.673 
	21.605,35.014 24.724,35.014 24.724,33.855 20.296,33.855 20.296,40.851 24.724,40.851 "/>
<polygon fill="#FFFFFF" points="29.629,40.851 31.868,33.855 30.468,33.855 28.96,38.863 27.44,33.855 26.042,33.855 28.28,40.851 
	"/>
<polygon fill="#FFFFFF" points="49.454,33.855 48.076,36.423 46.695,33.855 45.267,33.855 47.425,37.683 47.425,40.851 
	48.725,40.851 48.725,37.683 50.884,33.855 "/>
<polygon fill="#FFFFFF" points="65.175,44.309 66.662,44.309 66.662,48.97 67.71,48.97 67.71,44.309 69.195,44.309 69.195,43.372 
	65.175,43.372 "/>
<polygon fill="#FFFFFF" points="70.441,48.97 73.983,48.97 73.983,48.042 71.489,48.042 71.489,46.555 73.655,46.555 73.655,45.627 
	71.489,45.627 71.489,44.3 73.983,44.3 73.983,43.372 70.441,43.372 "/>
<path fill="#FFFFFF" d="M77.199,43.372h-1.814v5.598h1.814c1.256,0,2.062-0.814,2.062-2.127v-1.344
	C79.262,44.188,78.455,43.372,77.199,43.372 M78.215,46.715c0,0.919-0.367,1.327-1.047,1.327h-0.735V44.3h0.735
	c0.68,0,1.047,0.408,1.047,1.327V46.715z"/>
<path fill="#FFFFFF" d="M44.559,40.851l-1.59-2.838c0.72-0.29,1.289-0.929,1.289-1.989c0-1.509-1.17-2.169-2.288-2.169h-2.569v6.996
	h1.309v-2.658h0.971l1.469,2.658H44.559z M41.81,37.023H40.71v-1.998h1.101c0.66,0,1.139,0.289,1.139,0.999
	C42.949,36.723,42.47,37.023,41.81,37.023"/>
<path fill="#FFFFFF" d="M62.537,45.725l-0.463-0.08c-0.552-0.098-0.792-0.345-0.792-0.744c0-0.367,0.264-0.688,0.792-0.688
	c0.511,0,0.823,0.304,0.935,0.792l1.031-0.16c-0.199-0.982-0.942-1.566-1.975-1.566c-1.185,0-1.831,0.774-1.831,1.631
	c0,0.904,0.535,1.447,1.584,1.632l0.463,0.08c0.584,0.104,0.848,0.375,0.848,0.782c0,0.399-0.319,0.729-0.88,0.729
	c-0.566,0-0.967-0.312-1.127-0.911l-1.04,0.15c0.266,1.089,1.088,1.696,2.167,1.696c1.192,0,1.927-0.713,1.927-1.696
	C64.176,46.507,63.688,45.923,62.537,45.725"/>
<polygon fill="#FFFFFF" points="79.346,35.014 79.346,33.855 74.918,33.855 74.918,40.851 79.346,40.851 79.346,39.692 
	76.227,39.692 76.227,37.832 78.936,37.832 78.936,36.673 76.227,36.673 76.227,35.014 "/>
<path fill="#FFFFFF" d="M58.943,38.493c-0.109,0.85-0.569,1.31-1.219,1.31c-0.851,0-1.32-0.611-1.32-1.78v-1.339
	c0-1.17,0.471-1.779,1.32-1.779c0.648,0,1.108,0.46,1.219,1.31l1.3-0.191c-0.199-1.389-1.17-2.289-2.569-2.289
	c-1.56,0-2.577,1.16-2.577,2.789v1.659c0,1.629,1.019,2.789,2.577,2.789c1.399,0,2.37-0.9,2.569-2.29L58.943,38.493z"/>
<path fill="#FFFFFF" d="M46.743,45.107c0-1.207-0.936-1.735-1.831-1.735h-2.055v5.598h1.048v-2.127h0.775l1.175,2.127h1.128
	l-1.272-2.271C46.287,46.467,46.743,45.955,46.743,45.107 M44.784,45.907h-0.879v-1.601h0.879c0.528,0,0.912,0.232,0.912,0.801
	C45.696,45.667,45.312,45.907,44.784,45.907"/>
<polygon fill="#FFFFFF" points="50.121,44.309 51.608,44.309 51.608,48.97 52.656,48.97 52.656,44.309 54.142,44.309 54.142,43.372 
	50.121,43.372 "/>
<polygon fill="#FFFFFF" points="55.388,48.97 58.93,48.97 58.93,48.042 56.436,48.042 56.436,46.555 58.602,46.555 58.602,45.627 
	56.436,45.627 56.436,44.3 58.93,44.3 58.93,43.372 55.388,43.372 "/>
<path fill="#03BBD5" d="M99.904,30.5h-9.943C85.127,12.94,69.027,0,49.952,0S14.777,12.94,9.943,30.5H0l4.891,11L0,52.5h9.943
	C14.777,70.061,30.877,83,49.952,83s35.175-12.939,40.009-30.5h9.943l-4.89-11L99.904,30.5z M49.952,81
	c-21.78,0-39.5-17.72-39.5-39.5S28.172,2,49.952,2s39.5,17.72,39.5,39.5S71.732,81,49.952,81"/>
<polygon fill="#03BBD5" points="51.679,25.225 53.656,23.492 51.02,23.195 49.952,20.801 48.885,23.195 46.248,23.492 
	48.225,25.225 47.663,27.846 49.952,26.479 52.241,27.846 "/>
<polygon fill="#03BBD5" points="44.125,24.731 42.238,24.52 41.475,22.806 40.712,24.52 38.826,24.731 40.24,25.971 39.838,27.845 
	41.475,26.868 43.112,27.845 42.71,25.971 "/>
<polygon fill="#03BBD5" points="59.192,24.519 58.43,22.807 57.665,24.519 55.78,24.731 57.193,25.971 56.791,27.846 58.43,26.869 
	60.066,27.846 59.664,25.971 61.078,24.731 "/>
<polygon fill="#03BBD5" points="46.529,56.212 45.767,54.5 45.002,56.212 43.118,56.425 44.53,57.664 44.128,59.539 45.767,58.562 
	47.403,59.539 47.001,57.664 48.416,56.425 "/>
<polygon fill="#03BBD5" points="54.901,56.212 54.139,54.5 53.374,56.212 51.489,56.425 52.902,57.664 52.5,59.539 54.139,58.562 
	55.775,59.539 55.373,57.664 56.787,56.425 "/>
</svg>
