<?xml version="1.0" encoding="utf-8"?>
<!-- Generator: Adobe Illustrator 16.0.0, SVG Export Plug-In . SVG Version: 6.00 Build 0)  -->
<!DOCTYPE svg PUBLIC "-//W3C//DTD SVG 1.1//EN" "http://www.w3.org/Graphics/SVG/1.1/DTD/svg11.dtd">
<svg version="1.1" id="Layer_1" xmlns="http://www.w3.org/2000/svg" xmlns:xlink="http://www.w3.org/1999/xlink" x="0px" y="0px"
	 width="38.802px" height="58.505px" viewBox="0 0 38.802 58.505" enable-background="new 0 0 38.802 58.505" xml:space="preserve">
<path fill="#323232" d="M14.527,51.269c0,1.273,1.033,2.307,2.307,2.307s2.306-1.033,2.306-2.307c0-1.274-1.032-2.308-2.306-2.308
	S14.527,49.994,14.527,51.269"/>
<path fill="#323232" d="M30.668,26.121v27.73c0,0.911-0.742,1.653-1.653,1.653H4.653C3.742,55.505,3,54.763,3,53.852V11.209
	c0-0.911,0.741-1.653,1.653-1.653h20.721c0.593-1.059,1.198-2.08,1.766-3H4.653C2.087,6.556,0,8.643,0,11.209v42.643
	c0,2.565,2.087,4.653,4.653,4.653h24.361c2.565,0,4.653-2.088,4.653-4.653V24.989C32.772,25.576,31.757,25.971,30.668,26.121"/>
<path fill="#323232" d="M28.572,45.802V26.1c-1.094-0.171-2.11-0.585-3-1.196v19.398H8.096V16.067h14.316
	c0.267-0.919,0.673-1.941,1.16-3H6.596c-0.829,0-1.5,0.672-1.5,1.5v31.235c0,0.828,0.671,1.5,1.5,1.5h20.477
	C27.9,47.302,28.572,46.63,28.572,45.802"/>
<path fill="#03BBD5" d="M30.92,1.772L29.689,0l-1.232,1.772c-0.807,1.16-7.883,11.474-7.891,16.301
	c0.003,5.306,4.092,9.623,9.115,9.623h0.005c2.453,0,4.754-1.012,6.479-2.85c1.702-1.815,2.638-4.22,2.636-6.773
	C38.802,13.258,31.727,2.934,30.92,1.772 M33.978,22.793c-1.151,1.228-2.676,1.903-4.291,1.903h-0.004
	c-3.372,0-6.114-2.971-6.116-6.622c0.004-2.532,3.373-8.535,6.122-12.756c2.747,4.223,6.113,10.227,6.113,12.756
	C35.803,19.862,35.156,21.537,33.978,22.793"/>
<path fill="#03BBD5" d="M29.652,19.987c-0.886,0-1.607-0.814-1.607-1.812c0-0.055,0.023-0.576,0.805-2.087
	c0.38-0.736,0.092-1.641-0.645-2.022c-0.735-0.377-1.641-0.091-2.021,0.645c-0.776,1.501-1.139,2.6-1.14,3.462
	c0,2.655,2.067,4.814,4.606,4.814h0.004c1.511,0,2.928-0.779,3.789-2.085c0.457-0.69,0.267-1.621-0.424-2.078
	c-0.691-0.456-1.622-0.266-2.078,0.426C30.631,19.718,30.163,19.987,29.652,19.987L29.652,19.987z"/>
<rect fill="none" width="38.802" height="58.505"/>
</svg>
