<?xml version="1.0" encoding="utf-8"?>
<!-- Generator: Adobe Illustrator 16.0.4, SVG Export Plug-In . SVG Version: 6.00 Build 0)  -->
<!DOCTYPE svg PUBLIC "-//W3C//DTD SVG 1.1//EN" "http://www.w3.org/Graphics/SVG/1.1/DTD/svg11.dtd">
<svg version="1.1" id="Layer_1" xmlns="http://www.w3.org/2000/svg" xmlns:xlink="http://www.w3.org/1999/xlink" x="0px" y="0px"
	 width="49.271px" height="49.272px" viewBox="0 0 49.271 49.272" enable-background="new 0 0 49.271 49.272" xml:space="preserve">
<path fill="#03BBD5" d="M24.636,49.272C11.052,49.272,0,38.22,0,24.636C0,11.052,11.052,0,24.636,0s24.636,11.052,24.636,24.636
	C49.271,38.22,38.22,49.272,24.636,49.272 M24.636,3C12.706,3,3,12.706,3,24.636c0,11.93,9.706,21.636,21.636,21.636
	c11.93,0,21.636-9.706,21.636-21.636C46.271,12.706,36.565,3,24.636,3"/>
<path fill="#323232" d="M33.777,23.75c0.045,0.368,0.074,0.741,0.074,1.121c0,5.082-4.134,9.216-9.216,9.216
	s-9.216-4.134-9.216-9.216s4.134-9.217,9.216-9.217c2.062,0,3.962,0.689,5.499,1.838l2.14-2.14
	c-2.094-1.684-4.748-2.698-7.639-2.698c-6.736,0-12.216,5.481-12.216,12.217s5.48,12.216,12.216,12.216
	c6.736,0,12.216-5.479,12.216-12.216c0-1.268-0.194-2.491-0.555-3.641L33.777,23.75z"/>
<polygon fill="#323232" points="20.411,19.132 17.583,21.96 25.514,29.892 40.232,15.172 37.404,12.343 25.514,24.235 "/>
<rect fill="none" width="49.271" height="49.272"/>
</svg>
