<?xml version="1.0" encoding="utf-8"?>
<!-- Generator: Adobe Illustrator 16.0.4, SVG Export Plug-In . SVG Version: 6.00 Build 0)  -->
<!DOCTYPE svg PUBLIC "-//W3C//DTD SVG 1.1//EN" "http://www.w3.org/Graphics/SVG/1.1/DTD/svg11.dtd">
<svg version="1.1" id="Layer_1" xmlns="http://www.w3.org/2000/svg" xmlns:xlink="http://www.w3.org/1999/xlink" x="0px" y="0px"
	 width="76.446px" height="76.446px" viewBox="0 0 76.446 76.446" enable-background="new 0 0 76.446 76.446" xml:space="preserve">
<path fill="none" stroke="#323232" stroke-width="3" stroke-linecap="round" stroke-linejoin="round" stroke-miterlimit="10" d="
	M54.481,32.552H46.21c-2.024,0-3.665-1.641-3.665-3.665V1.761"/>
<path fill="#FFFFFF" d="M55.654,28.954c1.987,0,3.598,1.611,3.598,3.598c0,1.986-1.61,3.597-3.598,3.597s-3.598-1.611-3.598-3.597
	C52.057,30.565,53.667,28.954,55.654,28.954"/>
<circle fill="none" stroke="#323232" stroke-width="3" stroke-linecap="round" stroke-linejoin="round" stroke-miterlimit="10" cx="55.654" cy="32.552" r="3.598"/>
<path fill="none" stroke="#323232" stroke-width="3" stroke-linecap="round" stroke-linejoin="round" stroke-miterlimit="10" d="
	M54.481,45.4H46.21c-2.024,0-3.665,1.642-3.665,3.665v25.169"/>
<path fill="#FFFFFF" d="M55.654,48.998c1.987,0,3.598-1.61,3.598-3.598c0-1.986-1.61-3.597-3.598-3.597s-3.598,1.61-3.598,3.597
	C52.057,47.388,53.667,48.998,55.654,48.998"/>
<circle fill="none" stroke="#323232" stroke-width="3" stroke-linecap="round" stroke-linejoin="round" stroke-miterlimit="10" cx="55.654" cy="45.401" r="3.597"/>
<path fill="none" stroke="#323232" stroke-width="3" stroke-linecap="round" stroke-linejoin="round" stroke-miterlimit="10" d="
	M25.038,26.346h8.272c2.024,0,3.665,1.641,3.665,3.665v44.225"/>
<path fill="none" stroke="#323232" stroke-width="3" stroke-linecap="round" stroke-linejoin="round" stroke-miterlimit="10" d="
	M19.07,37.439h8.272c2.024,0,3.665,1.641,3.665,3.666v33.131"/>
<path fill="none" stroke="#323232" stroke-width="3" stroke-linecap="round" stroke-linejoin="round" stroke-miterlimit="10" d="
	M2.833,48.023h18.54c2.024,0,3.665,1.641,3.665,3.665v20.81"/>
<path fill="#FFFFFF" d="M23.866,29.943c-1.987,0-3.598-1.611-3.598-3.598c0-1.986,1.611-3.597,3.598-3.597
	c1.987,0,3.598,1.611,3.598,3.597C27.463,28.333,25.853,29.943,23.866,29.943"/>
<circle fill="none" stroke="#323232" stroke-width="3" stroke-linecap="round" stroke-linejoin="round" stroke-miterlimit="10" cx="23.866" cy="26.346" r="3.597"/>
<path fill="#FFFFFF" d="M19.07,41.037c-1.987,0-3.598-1.611-3.598-3.599c0-1.986,1.611-3.597,3.598-3.597
	c1.987,0,3.598,1.611,3.598,3.597C22.667,39.426,21.057,41.037,19.07,41.037"/>
<circle fill="none" stroke="#323232" stroke-width="3" stroke-linecap="round" stroke-linejoin="round" stroke-miterlimit="10" cx="19.07" cy="37.439" r="3.598"/>
<circle fill="none" stroke="#03BBD5" stroke-width="3" stroke-linecap="round" stroke-linejoin="round" stroke-miterlimit="10" cx="38.223" cy="38.223" r="36.723"/>
<rect y="0" fill="none" width="76.446" height="76.446"/>
</svg>
