<?xml version="1.0" encoding="utf-8"?>
<!-- Generator: Adobe Illustrator 16.0.4, SVG Export Plug-In . SVG Version: 6.00 Build 0)  -->
<!DOCTYPE svg PUBLIC "-//W3C//DTD SVG 1.1//EN" "http://www.w3.org/Graphics/SVG/1.1/DTD/svg11.dtd">
<svg version="1.1" id="Layer_1" xmlns="http://www.w3.org/2000/svg" xmlns:xlink="http://www.w3.org/1999/xlink" x="0px" y="0px"
	 width="65.9px" height="49.457px" viewBox="0 0 65.9 49.457" enable-background="new 0 0 65.9 49.457" xml:space="preserve">
<polygon fill="#323232" points="12.915,15.896 9.719,15.896 9.719,13.363 13.306,13.363 13.306,11.085 7.102,11.085 7.102,22.984 
	9.719,22.984 9.719,18.174 12.915,18.174 "/>
<path fill="#323232" d="M17.734,18.802h0.629l1.275,4.182h2.737l-1.734-4.793c0.799-0.578,1.36-1.598,1.36-3.247
	c0-2.89-1.734-3.859-3.434-3.859h-3.451v11.899h2.618V18.802z M17.734,13.363h0.425c0.867,0,1.224,0.544,1.224,1.581
	s-0.357,1.581-1.224,1.581h-0.425V13.363z"/>
<polygon fill="#323232" points="24.162,22.984 30.367,22.984 30.367,20.707 26.78,20.707 26.78,18.021 29.856,18.021 29.856,15.743 
	26.78,15.743 26.78,13.363 30.367,13.363 30.367,11.085 24.162,11.085 "/>
<polygon fill="#323232" points="32.288,22.984 38.493,22.984 38.493,20.707 34.906,20.707 34.906,18.021 37.982,18.021 
	37.982,15.743 34.906,15.743 34.906,13.363 38.493,13.363 38.493,11.085 32.288,11.085 "/>
<path fill="#323232" d="M48.103,36.144c-3.67,0-6.657,2.986-6.657,6.656c0,3.671,2.987,6.657,6.657,6.657s6.657-2.986,6.657-6.657
	C54.76,39.13,51.772,36.144,48.103,36.144 M48.103,46.457c-2.016,0-3.657-1.641-3.657-3.657c0-2.016,1.642-3.656,3.657-3.656
	s3.657,1.641,3.657,3.656C51.76,44.816,50.118,46.457,48.103,46.457"/>
<path fill="#323232" d="M17.849,36.144c-3.67,0-6.657,2.986-6.657,6.656c0,3.671,2.987,6.657,6.657,6.657s6.657-2.986,6.657-6.657
	C24.505,39.13,21.519,36.144,17.849,36.144 M17.849,46.457c-2.016,0-3.657-1.641-3.657-3.657c0-2.016,1.641-3.656,3.657-3.656
	s3.657,1.641,3.657,3.656C21.505,44.816,19.865,46.457,17.849,46.457"/>
<path fill="#03BBD5" d="M65.723,27.544l-8.858-16.535c-0.261-0.487-0.769-0.791-1.321-0.791h-9.326V1.5c0-0.829-0.671-1.5-1.5-1.5
	H1.5C0.671,0,0,0.671,0,1.5v38.213c0,0.828,0.672,1.5,1.5,1.5h6.299h1.108l0.326-1.059c1.154-3.749,4.697-6.368,8.616-6.368
	s7.462,2.619,8.616,6.368l0.326,1.059h1.108h10.154h1.107l0.326-1.059c1.154-3.749,4.697-6.368,8.616-6.368
	c3.942,0,7.394,2.528,8.591,6.29l0.332,1.045h1.097h6.277c0.829,0,1.5-0.671,1.5-1.5V28.252
	C65.899,28.005,65.839,27.762,65.723,27.544 M36.998,38.213h-8.045c-1.844-4.485-6.176-7.427-11.104-7.427
	c-4.928,0-9.26,2.941-11.104,7.427H3V3h40.217v8.718v20.103C40.442,33.049,38.195,35.303,36.998,38.213 M59.166,38.121
	c-1.867-4.43-6.184-7.335-11.063-7.335c-0.64,0-1.271,0.052-1.886,0.148V13.218h8.428l8.255,15.411v9.492H59.166z"/>
<rect fill="none" width="65.9" height="49.457"/>
</svg>
