<?xml version="1.0" encoding="utf-8"?>
<!-- Generator: Adobe Illustrator 16.0.4, SVG Export Plug-In . SVG Version: 6.00 Build 0)  -->
<!DOCTYPE svg PUBLIC "-//W3C//DTD SVG 1.1//EN" "http://www.w3.org/Graphics/SVG/1.1/DTD/svg11.dtd">
<svg version="1.1" id="Layer_1" xmlns="http://www.w3.org/2000/svg" xmlns:xlink="http://www.w3.org/1999/xlink" x="0px" y="0px"
	 width="49.271px" height="49.271px" viewBox="0 0 49.271 49.271" enable-background="new 0 0 49.271 49.271" xml:space="preserve">
<path fill="#03BBD5" d="M24.636,49.271C11.052,49.271,0,38.22,0,24.636S11.052,0,24.636,0s24.636,11.052,24.636,24.636
	S38.22,49.271,24.636,49.271 M24.636,3C12.706,3,3,12.706,3,24.636s9.706,21.635,21.636,21.635c11.93,0,21.636-9.705,21.636-21.635
	S36.565,3,24.636,3"/>
<path fill="#323232" d="M33.493,18.795h-1.26v-2.034c0-4.185-3.405-7.591-7.591-7.591c-4.185,0-7.589,3.406-7.589,7.591v2.034
	h-1.275c-0.828,0-1.5,0.672-1.5,1.5v16.303c0,0.828,0.672,1.5,1.5,1.5h17.715c0.829,0,1.5-0.672,1.5-1.5V20.295
	C34.993,19.467,34.322,18.795,33.493,18.795 M20.053,16.762c0-2.531,2.059-4.591,4.589-4.591c2.531,0,4.591,2.06,4.591,4.591v2.034
	h-9.18V16.762z M31.993,35.099H17.278V21.795h14.715V35.099z"/>
<path fill="#323232" d="M23.636,28.978v3.245h2v-3.245c0.752-0.371,1.274-1.138,1.274-2.033c0-1.255-1.019-2.273-2.274-2.273
	s-2.274,1.018-2.274,2.273C22.362,27.84,22.884,28.606,23.636,28.978"/>
<rect y="0" fill="none" width="49.271" height="49.271"/>
</svg>
