<?xml version="1.0" encoding="utf-8"?>
<!-- Generator: Adobe Illustrator 16.0.0, SVG Export Plug-In . SVG Version: 6.00 Build 0)  -->
<!DOCTYPE svg PUBLIC "-//W3C//DTD SVG 1.1//EN" "http://www.w3.org/Graphics/SVG/1.1/DTD/svg11.dtd">
<svg version="1.1" id="Layer_1" xmlns="http://www.w3.org/2000/svg" xmlns:xlink="http://www.w3.org/1999/xlink" x="0px" y="0px"
	 width="44.444px" height="44.444px" viewBox="0 0 44.444 44.444" enable-background="new 0 0 44.444 44.444" xml:space="preserve">
<path d="M22.223,0C9.95,0,0,9.95,0,22.222c0,12.273,9.95,22.222,22.223,22.222c12.271,0,22.222-9.949,22.222-22.222
	C44.444,9.95,34.494,0,22.223,0 M34.27,29.031c0.579,0.579,0.579,1.517,0,2.095l-3.143,3.143c-0.578,0.578-1.517,0.578-2.096,0
	l-6.809-6.809l-6.809,6.809c-0.579,0.578-1.517,0.578-2.096,0l-3.143-3.143c-0.578-0.578-0.578-1.516,0-2.095l6.81-6.809
	l-6.809-6.809c-0.579-0.578-0.579-1.516,0-2.095l3.143-3.143c0.578-0.579,1.517-0.579,2.095,0l6.809,6.809l6.808-6.809
	c0.579-0.578,1.519-0.578,2.096,0l3.143,3.143c0.579,0.579,0.579,1.517,0,2.096l-6.809,6.808L34.27,29.031z"/>
</svg>
