<?xml version="1.0" encoding="utf-8"?>
<!-- Generator: Adobe Illustrator 16.0.0, SVG Export Plug-In . SVG Version: 6.00 Build 0)  -->
<!DOCTYPE svg PUBLIC "-//W3C//DTD SVG 1.1//EN" "http://www.w3.org/Graphics/SVG/1.1/DTD/svg11.dtd">
<svg version="1.1" id="Layer_1" xmlns="http://www.w3.org/2000/svg" xmlns:xlink="http://www.w3.org/1999/xlink" x="0px" y="0px"
	 width="161.512px" height="161.512px" viewBox="0 0 161.512 161.512" enable-background="new 0 0 161.512 161.512"
	 xml:space="preserve">
<polygon fill="#FFFFFF" points="115.07,73.792 87.72,73.792 87.72,46.441 73.792,46.441 73.792,73.792 46.441,73.792 46.441,87.72 
	73.792,87.72 73.792,115.07 87.72,115.07 87.72,87.72 115.07,87.72 "/>
<path fill="#FFFFFF" d="M80.756,161.512C36.227,161.512,0,125.285,0,80.756C0,36.227,36.227,0,80.756,0
	c44.529,0,80.756,36.227,80.756,80.756C161.512,125.285,125.285,161.512,80.756,161.512z M80.756,9C41.189,9,9,41.189,9,80.756
	s32.189,71.756,71.756,71.756s71.756-32.189,71.756-71.756S120.322,9,80.756,9z"/>
</svg>
