<?xml version="1.0" encoding="utf-8"?>
<!-- Generator: Adobe Illustrator 16.0.0, SVG Export Plug-In . SVG Version: 6.00 Build 0)  -->
<!DOCTYPE svg PUBLIC "-//W3C//DTD SVG 1.1//EN" "http://www.w3.org/Graphics/SVG/1.1/DTD/svg11.dtd">
<svg version="1.1" id="Layer_1" xmlns="http://www.w3.org/2000/svg" xmlns:xlink="http://www.w3.org/1999/xlink" x="0px" y="0px"
	 width="76.446px" height="76.446px" viewBox="0 0 76.446 76.446" enable-background="new 0 0 76.446 76.446" xml:space="preserve">
<circle fill="none" stroke="#03BBD5" stroke-width="3" stroke-linecap="round" stroke-linejoin="round" stroke-miterlimit="10" cx="38.223" cy="38.223" r="36.723"/>
<path fill="none" stroke="#323232" stroke-width="3" stroke-linecap="round" stroke-linejoin="round" stroke-miterlimit="10" d="
	M55.43,52.749v3.85c0,3.739-3.031,6.771-6.771,6.771H34.915c-3.739,0-6.77-3.12-6.77-7.711l-11.51-15.377
	c0,0,3.878-5.709,8.63-0.381c4.752,5.327,5.687,6.494,5.687,6.494V20.455"/>
<line fill="none" stroke="#323232" stroke-width="3" stroke-linecap="round" stroke-linejoin="round" stroke-miterlimit="10" x1="55.43" y1="52.427" x2="55.43" y2="39.323"/>
<path fill="none" stroke="#323232" stroke-width="3" stroke-linecap="round" stroke-linejoin="round" stroke-miterlimit="10" d="
	M30.951,38.016V19.567c0-0.944,0.82-1.709,1.832-1.709h2.893c1.012,0,1.832,0.765,1.832,1.709v20.83"/>
<path fill="none" stroke="#323232" stroke-width="3" stroke-linecap="round" stroke-linejoin="round" stroke-miterlimit="10" d="
	M37.508,38.61v-5.671c0-0.944,0.747-1.71,1.669-1.71h2.636c0.923,0,1.669,0.766,1.669,1.71v5.671"/>
<path fill="none" stroke="#323232" stroke-width="3" stroke-linecap="round" stroke-linejoin="round" stroke-miterlimit="10" d="
	M43.481,40.397v-5.788c0-0.944,0.747-1.709,1.67-1.709h2.636c0.922,0,1.669,0.765,1.669,1.709v4.001"/>
<path fill="none" stroke="#323232" stroke-width="3" stroke-linecap="round" stroke-linejoin="round" stroke-miterlimit="10" d="
	M49.456,40.397v-4.118c0-0.944,0.747-1.709,1.669-1.709h2.636c0.922,0,1.669,0.765,1.669,1.709V52.13"/>
<path fill="none" stroke="#03BBD5" stroke-width="3" stroke-linecap="round" stroke-linejoin="round" stroke-miterlimit="10" d="
	M42.255,24.804V17.4c0-2.388-1.935-4.323-4.323-4.323h-7.404c-2.388,0-4.323,1.935-4.323,4.323v7.404"/>
<rect y="0" fill="none" width="76.446" height="76.446"/>
</svg>
