<?xml version="1.0" encoding="utf-8"?>
<!-- Generator: Adobe Illustrator 16.0.0, SVG Export Plug-In . SVG Version: 6.00 Build 0)  -->
<!DOCTYPE svg PUBLIC "-//W3C//DTD SVG 1.1//EN" "http://www.w3.org/Graphics/SVG/1.1/DTD/svg11.dtd">
<svg version="1.1" id="Layer_1" xmlns="http://www.w3.org/2000/svg" xmlns:xlink="http://www.w3.org/1999/xlink" x="0px" y="0px"
	 width="76.446px" height="76.446px" viewBox="0 0 76.446 76.446" enable-background="new 0 0 76.446 76.446" xml:space="preserve">
<circle fill="none" stroke="#03BBD5" stroke-width="3" stroke-linecap="round" stroke-linejoin="round" stroke-miterlimit="10" cx="38.223" cy="38.223" r="36.723"/>
<path fill="#323232" d="M41.156,59.265c0-1.858-1.506-3.364-3.364-3.364c-1.857,0-3.363,1.506-3.363,3.364s1.506,3.364,3.363,3.364
	C39.65,62.629,41.156,61.123,41.156,59.265"/>
<circle fill="none" stroke="#323232" stroke-width="3" stroke-linecap="round" stroke-linejoin="round" stroke-miterlimit="10" cx="37.793" cy="59.265" r="3.364"/>
<line fill="none" stroke="#323232" stroke-width="3" stroke-linecap="round" stroke-linejoin="round" stroke-miterlimit="10" x1="37.793" y1="57.421" x2="37.793" y2="14.884"/>
<polygon fill="none" stroke="#323232" stroke-width="3" stroke-linecap="round" stroke-miterlimit="10" points="35.37,17.962 
	40.025,17.962 37.737,13.819 "/>
<rect x="49.466" y="24.448" fill="#323232" width="4.144" height="4.143"/>
<rect x="49.466" y="24.448" fill="none" stroke="#323232" stroke-width="3" stroke-linecap="round" stroke-miterlimit="10" width="4.144" height="4.143"/>
<path fill="#323232" d="M26.981,33.886c0-1.144-0.928-2.072-2.072-2.072s-2.071,0.928-2.071,2.072s0.927,2.072,2.071,2.072
	S26.981,35.03,26.981,33.886"/>
<circle fill="none" stroke="#323232" stroke-width="3" stroke-linecap="round" stroke-miterlimit="10" cx="24.909" cy="33.886" r="2.072"/>
<polyline fill="none" stroke="#323232" stroke-width="3" stroke-linecap="round" stroke-linejoin="round" stroke-miterlimit="10" points="
	51.537,25.987 51.537,35.038 38.682,42.923 "/>
<polyline fill="none" stroke="#323232" stroke-width="3" stroke-linecap="round" stroke-linejoin="round" stroke-miterlimit="10" points="
	24.861,33.886 24.861,42.936 37.716,50.821 "/>
<rect y="0" fill="none" width="76.446" height="76.446"/>
</svg>
