<?xml version="1.0" encoding="utf-8"?>
<!-- Generator: Adobe Illustrator 16.0.0, SVG Export Plug-In . SVG Version: 6.00 Build 0)  -->
<!DOCTYPE svg PUBLIC "-//W3C//DTD SVG 1.1//EN" "http://www.w3.org/Graphics/SVG/1.1/DTD/svg11.dtd">
<svg version="1.1" id="Layer_1" xmlns="http://www.w3.org/2000/svg" xmlns:xlink="http://www.w3.org/1999/xlink" x="0px" y="0px"
	 width="108px" height="111.5px" viewBox="0 0 108 111.5" enable-background="new 0 0 108 111.5" xml:space="preserve">
<path d="M18.094,28.091c0,0,7.89,53.088,30.736,67.059c3.122,1.809,6.662,1.723,9.039-0.328
	c9.533-8.219,19.404-22.061,22.197-28.471c5.25,0.5,8.867-0.785,8.867-0.785L88.9,55.434c0,0-7.699,0.145-9.166,0.167
	C68.566,55.767,60.859,42.216,65.4,30.767c3.146-7.931,8.68-2.215,9.666,0.25s0.77,9.07-0.666,13.916
	c1.75,4.084,11.25,6.25,13.416,2.834c2.668-7.5,3.834-21-3.082-28c-4.562-4.617-16.016-6.962-24.398-1.702
	c-8.383,5.26-8.219,16.437-7.562,22.024c0.658,5.589,2.466,17.422,13.642,23.997c0.986,1.15-12.25,18.344-12.984,17.588
	c-16.436-16.93-20.874-53.418-20.874-53.418L18.094,28.091z"/>
</svg>
