<?xml version="1.0" encoding="utf-8"?>
<!-- Generator: Adobe Illustrator 18.1.1, SVG Export Plug-In . SVG Version: 6.00 Build 0)  -->
<svg version="1.1" id="Layer_1" xmlns="http://www.w3.org/2000/svg" xmlns:xlink="http://www.w3.org/1999/xlink" x="0px" y="0px"
	 viewBox="0 0 52.2 57.3" enable-background="new 0 0 52.2 57.3" xml:space="preserve">
<path fill="#03BBD5" d="M49.8,8.9l-0.3-1.3l-1.3,0.1c-7.4,0.8-14.9-1.3-21-6L26.1,1l-1,0.7c-6.2,4.7-13.6,6.9-21,6L2.8,7.6L2.4,8.9
	C-2.8,29,7.5,50.2,25.5,56.3l0.6,0.2l0.6-0.2C44.7,50.2,55.1,29,49.8,8.9 M26.1,53.3c-6-2.1-11-6.1-14.8-11.1l5.9-4.9L15.3,35
	l-5.6,4.7c-5-8.2-7-18.6-4.6-28.8c7.5,0.5,14.8-1.6,21.1-6.2c5.3,3.9,11.5,6,17.9,6.2L35.5,18l1.9,2.3l10-8.4
	C50.9,29.7,41.7,47.8,26.1,53.3"/>
<path fill="#323232" d="M37.4,31.5l3.7-4.1l-2.2,0c-0.1-5.7-3.8-10.8-9.2-12.7c-7.1-2.5-14.9,1.3-17.4,8.4c-1.2,3.5-1,7.2,0.6,10.5
	c1.6,3.3,4.4,5.8,7.8,7c1.5,0.5,3,0.8,4.5,0.8c4.5,0,8.8-2.2,11.4-6.1l-2.5-1.7c-2.7,4.1-7.8,5.8-12.4,4.2c-5.6-1.9-8.5-8-6.6-13.6
	c1.9-5.6,8-8.5,13.6-6.6c4.2,1.5,7.1,5.4,7.2,9.8l-2.2,0L37.4,31.5z"/>
<rect y="1" fill="none" width="50.1" height="55.5"/>
<text transform="matrix(1 0 0 1 20.8727 34.0831)" fill="#323232" stroke="#323232" stroke-width="0.75" stroke-miterlimit="10" font-family="'CoreSansD55Bold'" font-size="20.0394">2</text>
</svg>
