<?xml version="1.0" standalone="no"?>
<!DOCTYPE svg PUBLIC "-//W3C//DTD SVG 1.1//EN" "http://www.w3.org/Graphics/SVG/1.1/DTD/svg11.dtd" >
<svg xmlns="http://www.w3.org/2000/svg" xmlns:xlink="http://www.w3.org/1999/xlink" version="1.1">
<metadata></metadata>
<defs>
<font id="core_sans_d_55_boldregular" horiz-adv-x="1107" >
<font-face units-per-em="2048" ascent="1638" descent="-410" />
<missing-glyph horiz-adv-x="532" />
<glyph unicode="&#xfb01;" horiz-adv-x="1224" d="M68 807v217h141v29q0 221 91.5 313t317.5 92h80v-217h-67q-104 0 -137 -43t-33 -145v-29h624v-1024h-251v807h-373v-807h-252v807h-141zM834 1210v248h251v-248h-251z" />
<glyph unicode="&#xfb02;" horiz-adv-x="1296" d="M68 807v217h141v39q0 214 91 304.5t284 90.5q139 0 243 -49v49h252v-1108q0 -133 117 -133h53v-217h-82q-173 0 -256.5 80t-83.5 246v878q-84 37 -194 37q-101 0 -136.5 -38t-35.5 -138v-41h237v-217h-237v-807h-252v807h-141z" />
<glyph unicode="&#xfb03;" horiz-adv-x="1851" d="M68 807v217h141v29q0 227 87.5 315t311.5 88q70 0 142 -20l-27 -207q-53 12 -113 12q-89 0 -120 -38t-31 -136v-43h375v29q0 221 91.5 313t317.5 92h80v-217h-68q-104 0 -137 -43t-33 -145v-29h627v-1024h-252v807h-375v-807h-251v807h-375v-807h-250v807h-141z M1460 1210v248h252v-248h-252z" />
<glyph unicode="&#xfb04;" horiz-adv-x="1923" d="M68 807v217h141v29q0 227 87.5 315t311.5 88q70 0 142 -20l-27 -207q-53 12 -113 12q-89 0 -120 -38t-31 -136v-43h377v39q0 214 90.5 304.5t283.5 90.5q140 0 244 -49v49h252v-1108q0 -133 117 -133h53v-217h-82q-173 0 -256.5 80t-83.5 246v878q-84 37 -194 37 q-101 0 -137 -38t-36 -138v-41h238v-217h-238v-807h-251v807h-377v-807h-250v807h-141z" />
<glyph horiz-adv-x="682" />
<glyph horiz-adv-x="0" />
<glyph horiz-adv-x="0" />
<glyph unicode="&#xd;" horiz-adv-x="485" />
<glyph unicode=" "  horiz-adv-x="532" />
<glyph unicode="&#x09;" horiz-adv-x="532" />
<glyph unicode="&#xa0;" horiz-adv-x="532" />
<glyph unicode="!" horiz-adv-x="659" d="M201 1223v211h258v-211l-45 -774h-168zM207 0v256h246v-256h-246z" />
<glyph unicode="&#x22;" horiz-adv-x="909" d="M154 1434h237l-37 -435h-170zM518 1434h238l-37 -435h-170z" />
<glyph unicode="#" horiz-adv-x="1435" d="M76 350v213h229l68 307h-228v213h273l76 351h254l-78 -351h254l75 351h254l-77 -351h184v-213h-230l-67 -307h227v-213h-272l-76 -350h-252l76 350h-254l-76 -350h-252l76 350h-184zM557 563h254l68 307h-254z" />
<glyph unicode="$" horiz-adv-x="1204" d="M78 410l266 39q40 -155 160 -209v387q-387 74 -387 413q0 156 102.5 272t284.5 140v160h198v-166q153 -28 255.5 -129t134.5 -260l-265 -41q-31 127 -125 176v-361q424 -72 424 -421q0 -177 -114 -294t-310 -136v-158h-198v166q-162 31 -273.5 140t-152.5 282zM385 1042 q0 -120 119 -168v332q-58 -20 -88.5 -64t-30.5 -100zM702 221q74 17 115 65.5t41 114.5q0 136 -156 185v-365z" />
<glyph unicode="%" horiz-adv-x="1746" d="M119 985v168q0 129 80 217t221 88t221 -88t80 -217v-168q0 -129 -80 -217t-221 -88t-221 88t-80 217zM322 1001q0 -69 25.5 -106t72.5 -37t72.5 37t25.5 106v136q0 69 -25.5 106t-72.5 37t-72.5 -37t-25.5 -106v-136zM467 0l594 1434h207l-594 -1434h-207zM1014 281v168 q0 129 80 217t221 88t221 -88t80 -217v-168q0 -129 -80.5 -217.5t-220.5 -88.5t-220.5 88.5t-80.5 217.5zM1217 297q0 -69 25.5 -106t72.5 -37t72.5 37t25.5 106v135q0 69 -25.5 106t-72.5 37t-72.5 -37t-25.5 -106v-135z" />
<glyph unicode="&#x26;" horiz-adv-x="1398" d="M125 377q0 111 58.5 208t195.5 206l31 24q-91 114 -128.5 184.5t-37.5 145.5q0 133 95 223t247 90q153 0 245.5 -89t92.5 -226q0 -104 -52.5 -189t-154.5 -166l256 -301q45 134 45 287l223 -14q0 -282 -100 -469l250 -291h-287l-98 115q-159 -140 -412 -140 q-214 0 -341.5 115t-127.5 287zM362 381q0 -84 65 -138.5t171 -54.5q152 0 258 103l-305 360q-99 -78 -144 -141t-45 -129zM475 1137q0 -58 80 -160l25 -27q52 38 82 91t30 96q0 49 -30.5 79.5t-75.5 30.5q-52 0 -81.5 -30t-29.5 -80z" />
<glyph unicode="'" horiz-adv-x="540" d="M154 1434h237l-37 -435h-170z" />
<glyph unicode="(" horiz-adv-x="679" d="M156 328v759q0 201 99.5 345.5t274.5 203.5l72 -225q-89 -38 -141.5 -130.5t-52.5 -229.5v-686q0 -137 52.5 -230t141.5 -131l-72 -225q-175 59 -274.5 203.5t-99.5 345.5z" />
<glyph unicode=")" horiz-adv-x="679" d="M78 4q89 38 141.5 131t52.5 230v686q0 137 -52.5 229.5t-141.5 130.5l72 225q175 -59 274.5 -203.5t99.5 -345.5v-759q0 -201 -99.5 -345.5t-274.5 -203.5z" />
<glyph unicode="*" horiz-adv-x="1071" d="M74 516l288 152l-288 145l98 182l266 -172l-20 307h235l-20 -307l266 172l98 -182l-288 -145l288 -152l-98 -178l-266 170l20 -305h-235l20 305l-266 -170z" />
<glyph unicode="+" horiz-adv-x="1118" d="M102 567v201h336v369h242v-369h336v-201h-336v-368h-242v368h-336z" />
<glyph unicode="," horiz-adv-x="552" d="M137 0v268h279v-262q0 -109 -72 -181t-207 -79v109q75 12 110 45.5t36 99.5h-146z" />
<glyph unicode="-" horiz-adv-x="862" d="M102 557v217h658v-217h-658z" />
<glyph unicode="." horiz-adv-x="552" d="M137 0v268h279v-268h-279z" />
<glyph unicode="/" horiz-adv-x="915" d="M2 -190l653 1794h258l-653 -1794h-258z" />
<glyph unicode="0" horiz-adv-x="1105" d="M98 471v492q0 232 123.5 363.5t331.5 131.5t331.5 -131.5t123.5 -363.5v-492q0 -232 -123.5 -364t-331.5 -132t-331.5 132t-123.5 364zM350 496q0 -297 203 -297t203 297v442q0 297 -203 297t-203 -297v-442z" />
<glyph unicode="1" d="M197 0v219h278v946l-278 -114v237l317 146h213v-1215h274v-219h-804z" />
<glyph unicode="2" d="M111 0v182l551 635q48 55 67 102t19 103q0 105 -53 162t-140 57q-88 0 -140.5 -57t-52.5 -162v-49l-251 16v35q0 189 120 311.5t324 122.5q199 0 321.5 -123t122.5 -311q0 -103 -34 -178t-107 -160l-412 -469h553v-217h-888z" />
<glyph unicode="3" d="M98 449v4l252 16v-16q0 -129 55.5 -194.5t149.5 -65.5q93 0 148 65.5t55 194.5q0 130 -55 195t-154 65q-47 0 -98 -23l-123 135l329 392h-514v217h811v-203l-292 -348q164 -9 256 -124.5t92 -307.5q0 -212 -119 -344t-336 -132q-219 0 -338 131.5t-119 342.5z" />
<glyph unicode="4" d="M68 289v207l544 938h275v-928h153v-217h-153v-289h-252v289h-567zM324 506h311v534z" />
<glyph unicode="5" d="M102 453l252 16v-10q0 -128 52.5 -197t150.5 -69q205 0 205 278q0 279 -207 279q-46 0 -85.5 -21.5t-63.5 -56.5h-242v762h772v-217h-520v-322q72 72 192 72q181 0 293.5 -128t112.5 -370q0 -230 -119 -362t-338 -132q-216 0 -335.5 130t-119.5 348z" />
<glyph unicode="6" d="M90 434q0 117 51 219l381 781h266l-270 -551q20 4 39 4q205 0 336 -130t131 -325q0 -194 -130 -325.5t-337 -131.5q-136 0 -243.5 62t-165.5 166t-58 231zM338 434q0 -113 59 -179.5t160 -66.5t160 66.5t59 179.5t-59 179.5t-160 66.5t-160 -66.5t-59 -179.5z" />
<glyph unicode="7" d="M113 1219v215h884v-185l-458 -1249h-267l449 1219h-608z" />
<glyph unicode="8" d="M88 436q0 117 56 213t151 142q-70 44 -113 119t-43 163q0 164 116.5 274.5t299.5 110.5t299.5 -110.5t116.5 -274.5q0 -88 -43 -163t-113 -119q95 -46 151 -142t56 -213q0 -197 -130 -329t-337 -132t-337 132t-130 329zM336 436q0 -114 59.5 -181t159.5 -67t159.5 67 t59.5 181t-59.5 182t-159.5 68t-159.5 -68t-59.5 -182zM381 1067q0 -77 48.5 -127.5t125.5 -50.5t125.5 50.5t48.5 127.5t-48.5 127.5t-125.5 50.5t-125.5 -50.5t-48.5 -127.5z" />
<glyph unicode="9" d="M84 1001q0 194 130 325.5t337 131.5q136 0 243.5 -62t165.5 -166t58 -231q0 -117 -51 -219l-381 -780h-267l271 551q-20 -4 -39 -4q-205 0 -336 129.5t-131 324.5zM332 999q0 -113 59 -179t160 -66t160 66t59 179t-59 179.5t-160 66.5t-160 -66.5t-59 -179.5z" />
<glyph unicode=":" horiz-adv-x="552" d="M137 0v268h279v-268h-279zM137 854v270h279v-270h-279z" />
<glyph unicode=";" horiz-adv-x="552" d="M137 0v268h279v-262q0 -109 -72 -181t-207 -79v109q75 12 110 45.5t36 99.5h-146zM137 854v270h279v-270h-279z" />
<glyph unicode="&#x3c;" horiz-adv-x="1118" d="M125 563v197l868 387v-225l-600 -260l600 -261v-225z" />
<glyph unicode="=" horiz-adv-x="1118" d="M102 379v201h914v-201h-914zM102 756v200h914v-200h-914z" />
<glyph unicode="&#x3e;" horiz-adv-x="1118" d="M125 176v225l600 261l-600 260v225l868 -387v-197z" />
<glyph unicode="?" horiz-adv-x="1083" d="M98 1049q15 180 133.5 294.5t311.5 114.5q192 0 307 -114.5t115 -294.5q0 -122 -43.5 -207t-139.5 -164q-69 -59 -98 -111t-29 -127v-51h-247v68q0 118 38.5 192t147.5 164q69 59 96 107.5t27 117.5q0 91 -47 144t-131 53q-83 0 -134 -52.5t-61 -152.5zM410 0v256h245 v-256h-245z" />
<glyph unicode="@" horiz-adv-x="1536" d="M139 176v717q0 118 51.5 223.5t137 180t200.5 118t240 43.5t240 -43.5t200.5 -118t137 -180t51.5 -223.5v-404q0 -225 -109 -350t-311 -125q-201 0 -309.5 119.5t-108.5 306.5v103q0 89 22.5 164.5t66.5 134t116.5 92t165.5 33.5q85 0 154.5 -35.5t107.5 -93.5v16 q0 184 -122 296t-302 112t-302 -112t-122 -296v-639q0 -183 122 -294t302 -111q128 0 215 53l98 -170q-145 -80 -313 -80q-167 0 -311 73.5t-231 203.5t-87 286zM791 477q0 -130 45 -192t159 -62q90 0 143.5 67t53.5 193v158q-29 54 -81.5 85.5t-113.5 31.5 q-110 0 -158 -64.5t-48 -189.5v-27z" />
<glyph unicode="A" horiz-adv-x="1245" d="M10 0l475 1434h275l475 -1434h-285l-90 293h-475l-90 -293h-285zM455 522h336l-168 559z" />
<glyph unicode="B" horiz-adv-x="1214" d="M139 0v1434h488q96 0 179 -24t148 -71t102.5 -125t37.5 -178q0 -103 -49.5 -178t-133.5 -110q103 -39 163.5 -125t60.5 -203q0 -107 -38 -189.5t-104.5 -132t-151.5 -74t-184 -24.5h-518zM408 240h229q105 0 167 46t62 142t-62 142t-167 46h-229v-376zM408 854h188 q109 0 169 38.5t60 131.5t-60 131.5t-169 38.5h-188v-340z" />
<glyph unicode="C" horiz-adv-x="1232" d="M98 547v340q0 252 145.5 411.5t383.5 159.5q214 0 354.5 -127t171.5 -342l-266 -39q-17 129 -83 199t-167 70q-131 0 -200.5 -93t-69.5 -272v-274q0 -179 69.5 -272t200.5 -93q101 0 167 69.5t83 198.5l266 -39q-31 -215 -171.5 -342t-354.5 -127q-237 0 -383 160 t-146 412z" />
<glyph unicode="D" horiz-adv-x="1239" d="M139 0v1434h465q242 0 385.5 -147t143.5 -398v-344q0 -251 -143.5 -398t-385.5 -147h-465zM408 238h188q268 0 268 340v278q0 340 -268 340h-188v-958z" />
<glyph unicode="E" horiz-adv-x="1136" d="M139 0v1434h908v-238h-639v-340h555v-238h-555v-380h639v-238h-908z" />
<glyph unicode="F" horiz-adv-x="1095" d="M139 0v1434h908v-240h-639v-358h575v-240h-575v-596h-269z" />
<glyph unicode="G" horiz-adv-x="1247" d="M98 547v340q0 252 145.5 411.5t383.5 159.5q214 0 354.5 -127t171.5 -342l-266 -39q-17 129 -83 199t-167 70q-131 0 -200.5 -93t-69.5 -272v-274q0 -179 69.5 -272t200.5 -93q121 0 180.5 84.5t71.5 251.5h-264v215h532v-221q0 -263 -144 -416.5t-386 -153.5 q-237 0 -383 160t-146 412z" />
<glyph unicode="H" horiz-adv-x="1290" d="M139 0v1434h269v-578h475v578h268v-1434h-268v616h-475v-616h-269z" />
<glyph unicode="I" horiz-adv-x="563" d="M147 0v1434h269v-1434h-269z" />
<glyph unicode="J" horiz-adv-x="1097" d="M41 385l258 35q25 -109 79 -157t126 -48q207 0 207 272v947h268v-983q0 -229 -127.5 -352.5t-345.5 -123.5q-183 0 -307.5 105.5t-157.5 304.5z" />
<glyph unicode="K" horiz-adv-x="1236" d="M139 0v1434h269v-621l129 86q95 62 153.5 116t90.5 114.5t43.5 121t11.5 148.5v35h268v-35q0 -220 -67 -364t-244 -269l444 -766h-299l-352 629l-178 -119v-510h-269z" />
<glyph unicode="L" horiz-adv-x="1075" d="M139 0v1434h269v-1194h639v-240h-908z" />
<glyph unicode="M" horiz-adv-x="1576" d="M139 0v1434h226l423 -781l424 781h226v-1434h-267v883l-280 -518h-205l-280 518v-883h-267z" />
<glyph unicode="N" horiz-adv-x="1349" d="M139 0v1434h242l561 -938v938h268v-1434h-241l-561 938v-938h-269z" />
<glyph unicode="O" horiz-adv-x="1257" d="M98 547v340q0 256 142.5 413.5t388.5 157.5q245 0 387.5 -157.5t142.5 -413.5v-340q0 -256 -142.5 -414t-387.5 -158t-388 158t-143 414zM367 580q0 -176 69.5 -270.5t192.5 -94.5t192.5 94.5t69.5 270.5v274q0 176 -69.5 270.5t-192.5 94.5t-192.5 -94.5t-69.5 -270.5 v-274z" />
<glyph unicode="P" horiz-adv-x="1214" d="M139 0v1434h527q88 0 170 -28.5t150 -82.5t108.5 -143.5t40.5 -200.5q0 -90 -27 -166t-72.5 -128.5t-106 -89.5t-127 -54t-136.5 -17h-258v-524h-269zM408 764h225q105 0 169 55.5t64 159.5q0 105 -64 160t-169 55h-225v-430z" />
<glyph unicode="Q" horiz-adv-x="1257" d="M98 547v340q0 256 142.5 413.5t388.5 157.5q245 0 387.5 -157.5t142.5 -413.5v-340q0 -179 -74 -318l150 -133l-143 -164l-152 134q-131 -91 -311 -91q-245 0 -388 158t-143 414zM367 580q0 -176 69.5 -270.5t192.5 -94.5q58 0 114 27l-112 102l143 164l98 -88 q19 71 19 160v274q0 176 -69.5 270.5t-192.5 94.5t-192.5 -94.5t-69.5 -270.5v-274z" />
<glyph unicode="R" horiz-adv-x="1234" d="M139 0v1434h527q70 0 136.5 -16.5t127.5 -51.5t106 -86.5t72 -126t27 -164.5q0 -154 -73 -256.5t-192 -150.5l326 -582h-289l-301 545h-198v-545h-269zM408 784h225q107 0 170 51t63 154q0 104 -63 154.5t-170 50.5h-225v-410z" />
<glyph unicode="S" horiz-adv-x="1204" d="M78 410l266 39q31 -115 105 -174.5t184 -59.5q104 0 164.5 53.5t60.5 132.5q0 162 -217 201l-119 21q-405 71 -405 417q0 83 31 158t89 133t148.5 92.5t200.5 34.5q199 0 333.5 -106.5t172.5 -294.5l-265 -41q-22 96 -82.5 149.5t-156.5 53.5q-97 0 -150 -51t-53 -126 q0 -77 49 -124t154 -66l119 -21q419 -72 419 -421q0 -192 -134 -313.5t-359 -121.5q-209 0 -357 114t-198 321z" />
<glyph unicode="T" horiz-adv-x="1083" d="M27 1194v240h1030v-240h-381v-1194h-268v1194h-381z" />
<glyph unicode="U" horiz-adv-x="1282" d="M123 530v904h268v-813q0 -206 60 -306t190 -100t190 100t60 306v813h268v-904q0 -254 -138 -404.5t-380 -150.5t-380 150.5t-138 404.5z" />
<glyph unicode="V" horiz-adv-x="1226" d="M16 1434h287l311 -1026l310 1026h286l-458 -1434h-277z" />
<glyph unicode="W" horiz-adv-x="1927" d="M27 1434h284l252 -981l271 981h260l270 -981l252 981h285l-398 -1434h-264l-276 1010l-275 -1010h-264z" />
<glyph unicode="X" horiz-adv-x="1265" d="M37 0l426 739l-395 695h292l273 -484l272 484h293l-395 -695l426 -739h-293l-303 526l-303 -526h-293z" />
<glyph unicode="Y" horiz-adv-x="1204" d="M27 1434h292l283 -527l283 527h293l-443 -785v-649h-266v649z" />
<glyph unicode="Z" horiz-adv-x="1087" d="M80 0v203l600 991h-580v240h908v-203l-602 -991h602v-240h-928z" />
<glyph unicode="[" horiz-adv-x="698" d="M158 -190v1794h467v-215h-215v-1364h215v-215h-467z" />
<glyph unicode="\" horiz-adv-x="915" d="M2 1604h258l653 -1794h-258z" />
<glyph unicode="]" horiz-adv-x="698" d="M74 25h213v1364h-213v215h467v-1794h-467v215z" />
<glyph unicode="^" horiz-adv-x="1026" d="M51 987l340 447h242l340 -447h-254l-207 264l-207 -264h-254z" />
<glyph unicode="_" horiz-adv-x="1024" d="M0 -205h1024v-147h-1024v147z" />
<glyph unicode="`" horiz-adv-x="790" d="M231 1495h240l158 -330h-174z" />
<glyph unicode="a" horiz-adv-x="1056" d="M76 270v27q0 65 25 120t76 99.5t138.5 70t204.5 25.5h174v29q0 95 -45 142.5t-127 47.5q-64 0 -111.5 -30t-72.5 -86l-229 59q56 127 166.5 201t259.5 74q192 0 301.5 -110t109.5 -286v-653h-252v106q-91 -131 -276 -131q-152 0 -247 83t-95 212zM328 293q0 -47 36 -77 t109 -30q71 0 132 31.5t89 83.5v115h-217q-68 0 -108.5 -29.5t-40.5 -81.5v-12z" />
<glyph unicode="b" horiz-adv-x="1083" d="M119 0v1458h252v-532q37 57 105 90t151 33q171 0 269.5 -117.5t98.5 -306.5v-226q0 -189 -98.5 -306.5t-269.5 -117.5q-83 0 -151 33t-105 90v-98h-252zM371 305q59 -112 174 -112q105 0 151.5 64.5t46.5 197.5v114q0 133 -46.5 197.5t-151.5 64.5q-115 0 -174 -112v-414 z" />
<glyph unicode="c" horiz-adv-x="1032" d="M88 406v212q0 178 127 304.5t320 126.5q166 0 283 -97.5t149 -246.5l-254 -37q-14 81 -62 122t-116 41q-85 0 -140 -61.5t-55 -181.5v-152q0 -120 55 -181.5t140 -61.5q68 0 116 41t62 122l254 -37q-32 -149 -149 -246.5t-283 -97.5q-193 0 -320 126.5t-127 304.5z" />
<glyph unicode="d" horiz-adv-x="1083" d="M88 399v226q0 188 99 306t270 118q83 0 151 -33t105 -90v532h252v-1458h-252v98q-37 -57 -105 -90t-151 -33q-171 0 -270 118t-99 306zM340 455q0 -133 47 -197.5t152 -64.5q115 0 174 112v414q-59 112 -174 112q-105 0 -152 -64.5t-47 -197.5v-114z" />
<glyph unicode="e" horiz-adv-x="1069" d="M88 403v215q0 88 31 166t87 137t141 93.5t188 34.5q136 0 239 -59t155 -155t52 -212v-197h-641q0 -111 51.5 -172t147.5 -61q66 0 113 30t65 86l254 -28q-38 -135 -154 -220.5t-278 -85.5q-139 0 -243 59.5t-156 155.5t-52 213zM340 610h389q-16 221 -194 221 q-90 0 -142.5 -58.5t-52.5 -162.5z" />
<glyph unicode="f" horiz-adv-x="737" d="M68 807v217h141v29q0 221 91.5 313t317.5 92h80v-217h-67q-104 0 -137 -43t-33 -145v-29h237v-217h-237v-807h-252v807h-141z" />
<glyph unicode="g" horiz-adv-x="1083" d="M88 399v226q0 188 99 306t270 118q83 0 151 -33t105 -90v98h252v-1044q0 -210 -112.5 -332.5t-315.5 -122.5q-149 0 -257 73t-155 207l237 58q44 -121 175 -121q176 0 176 248v108q-37 -57 -105 -90t-151 -33q-171 0 -270 118t-99 306zM340 455q0 -133 47 -197.5 t152 -64.5q115 0 174 112v414q-59 112 -174 112q-105 0 -152 -64.5t-47 -197.5v-114z" />
<glyph unicode="h" d="M119 0v1458h252v-549q40 63 111.5 101.5t160.5 38.5q168 0 261 -111.5t93 -306.5v-631h-252v594q0 120 -43 178.5t-141 58.5q-59 0 -111.5 -36t-78.5 -95v-700h-252z" />
<glyph unicode="i" horiz-adv-x="530" d="M139 0v1024h252v-1024h-252zM139 1210v248h252v-248h-252z" />
<glyph unicode="j" horiz-adv-x="559" d="M-37 -219h88q117 0 117 135v1108h252v-1130q0 -167 -83.5 -247.5t-258.5 -80.5h-115v215zM168 1210v248h252v-248h-252z" />
<glyph unicode="k" horiz-adv-x="1028" d="M119 0v1458h252v-844l73 50q131 86 181.5 156t50.5 177v27h244v-23q0 -151 -49.5 -247t-168.5 -187l332 -567h-266l-254 438l-143 -94v-344h-252z" />
<glyph unicode="l" horiz-adv-x="608" d="M139 326v1132h252v-1108q0 -133 117 -133h53v-217h-82q-173 0 -256.5 80t-83.5 246z" />
<glyph unicode="m" horiz-adv-x="1736" d="M119 0v1024h252v-115q40 63 111.5 101.5t160.5 38.5q103 0 180.5 -44.5t120.5 -127.5q56 76 142 124t186 48q168 0 261 -111.5t93 -306.5v-631h-252v594q0 120 -43 178.5t-141 58.5q-54 0 -107 -39.5t-88 -101.5q2 -18 2 -59v-631h-252v594q0 120 -43 178.5t-141 58.5 q-59 0 -111.5 -36t-78.5 -95v-700h-252z" />
<glyph unicode="n" d="M119 0v1024h252v-115q40 63 111.5 101.5t160.5 38.5q168 0 261 -111.5t93 -306.5v-631h-252v594q0 120 -43 178.5t-141 58.5q-59 0 -111.5 -36t-78.5 -95v-700h-252z" />
<glyph unicode="o" horiz-adv-x="1069" d="M88 395v234q0 178 124.5 299t322.5 121q197 0 321.5 -121t124.5 -299v-234q0 -178 -124.5 -299t-321.5 -121q-198 0 -322.5 121t-124.5 299zM340 422q0 -117 55 -173t140 -56t139.5 56t54.5 173v180q0 117 -54.5 173t-139.5 56t-140 -56t-55 -173v-180z" />
<glyph unicode="p" horiz-adv-x="1083" d="M119 -446v1470h252v-98q37 57 105 90t151 33q171 0 269.5 -117.5t98.5 -306.5v-226q0 -189 -98.5 -306.5t-269.5 -117.5q-83 0 -151 33t-105 90v-544h-252zM371 305q59 -112 174 -112q105 0 151.5 64.5t46.5 197.5v114q0 133 -46.5 197.5t-151.5 64.5q-115 0 -174 -112 v-414z" />
<glyph unicode="q" horiz-adv-x="1083" d="M86 399v226q0 188 99 306t270 118q83 0 151 -33t105 -90v98h252v-1470h-252v544q-37 -57 -105 -90t-151 -33q-171 0 -270 118t-99 306zM338 455q0 -133 47 -197.5t152 -64.5q115 0 174 112v414q-59 112 -174 112q-105 0 -152 -64.5t-47 -197.5v-114z" />
<glyph unicode="r" horiz-adv-x="790" d="M119 0v1024h252v-113q45 65 115.5 101.5t156.5 36.5q60 0 121 -23v-219q-68 24 -141 24q-79 0 -146 -36t-106 -101v-694h-252z" />
<glyph unicode="s" horiz-adv-x="997" d="M78 299l246 37q49 -154 200 -154q65 0 104.5 31.5t39.5 79.5q0 98 -140 121l-92 16q-169 31 -250.5 107.5t-81.5 203.5q0 133 102.5 220.5t272.5 87.5q158 0 268 -78.5t148 -220.5l-242 -35q-12 57 -58 92t-110 35q-59 0 -94 -28.5t-35 -72.5q0 -45 36 -71.5t108 -40.5 l92 -17q172 -30 249 -106t77 -209q0 -142 -106.5 -232t-287.5 -90q-171 0 -287 84t-159 240z" />
<glyph unicode="t" horiz-adv-x="743" d="M37 807v217h141v291h252v-291h240v-217h-240v-455q0 -135 117 -135h139v-217h-166q-175 0 -258.5 80.5t-83.5 247.5v479h-141z" />
<glyph unicode="u" d="M111 393v631h251v-594q0 -120 43.5 -178.5t141.5 -58.5q59 0 111.5 36t78.5 95v700h252v-1024h-252v115q-40 -63 -111.5 -101.5t-160.5 -38.5q-168 0 -261 111.5t-93 306.5z" />
<glyph unicode="v" horiz-adv-x="1024" d="M12 1024h262l238 -698l238 698h262l-373 -1024h-254z" />
<glyph unicode="w" horiz-adv-x="1622" d="M16 1024h263l202 -680l211 680h238l211 -680l202 680h263l-334 -1024h-248l-213 696l-213 -696h-248z" />
<glyph unicode="x" horiz-adv-x="987" d="M16 0l314 526l-293 498h280l177 -307l176 307h280l-293 -498l314 -526h-281l-196 336l-197 -336h-281z" />
<glyph unicode="y" horiz-adv-x="1032" d="M16 1024h269l243 -645l220 645h268l-426 -1208q-51 -146 -130 -197t-231 -51h-86v215h70q58 0 91 24t56 87l54 157z" />
<glyph unicode="z" horiz-adv-x="989" d="M70 0v182l491 625h-469v217h807v-182l-491 -625h512v-217h-850z" />
<glyph unicode="{" horiz-adv-x="712" d="M82 602v209h43q58 0 87.5 33t29.5 92v356q0 162 87 237t273 75h51v-211h-55q-104 0 -104 -125v-353q0 -69 -35 -127.5t-101 -80.5q66 -22 101 -81t35 -128v-353q0 -125 104 -125h55v-210h-51q-187 0 -273.5 74.5t-86.5 236.5v356q0 59 -29.5 92t-87.5 33h-43z" />
<glyph unicode="|" horiz-adv-x="649" d="M197 -190v1794h256v-1794h-256z" />
<glyph unicode="}" horiz-adv-x="712" d="M59 20h56q104 0 104 125v353q0 69 35 128t100 81q-66 22 -100.5 80.5t-34.5 127.5v353q0 125 -104 125h-56v211h52q186 0 273 -75t87 -237v-356q0 -59 29.5 -92t87.5 -33h43v-209h-43q-58 0 -87.5 -33t-29.5 -92v-356q0 -162 -86.5 -236.5t-273.5 -74.5h-52v210z" />
<glyph unicode="~" horiz-adv-x="1118" d="M49 496q4 177 91 267.5t229 90.5q134 0 266 -113q4 -4 20 -17.5t23 -18.5t20 -13.5t24 -12t23 -3.5q75 0 82 174l242 -21q-4 -177 -90.5 -267.5t-228.5 -90.5q-135 0 -267 113q-4 4 -20 17.5t-23 18.5t-20 13.5t-24 12t-23 3.5q-75 0 -82 -174z" />
<glyph unicode="&#xa1;" horiz-adv-x="659" d="M201 -199l45 774h168l45 -774v-211h-258v211zM207 768v256h246v-256h-246z" />
<glyph unicode="&#xa2;" horiz-adv-x="1032" d="M88 406v212q0 152 94 269t248 149v170h199v-168q131 -26 221 -116.5t117 -216.5l-254 -37q-17 96 -84 137v-588q67 44 84 139l254 -37q-27 -127 -117 -218t-221 -115v-168h-199v170q-154 32 -248 149t-94 269zM340 436q0 -154 90 -215v580q-90 -57 -90 -213v-152z" />
<glyph unicode="&#xa3;" horiz-adv-x="1208" d="M88 586v178h123v221q0 222 118 347.5t328 125.5q198 0 317.5 -110.5t147.5 -311.5l-266 -37q-18 119 -67 169.5t-132 50.5q-178 0 -178 -258v-197h367v-178h-367v-80q0 -177 -73 -266h724v-240h-1032v211q113 110 113 268v107h-123z" />
<glyph unicode="&#xa4;" horiz-adv-x="1323" d="M98 236l178 178q-75 109 -75 250q0 140 75 249l-178 179l154 153l186 -190q102 57 224 57q121 0 223 -57l186 190l154 -153l-178 -179q75 -109 75 -249q0 -141 -75 -250l178 -178l-154 -154l-186 190q-102 -57 -223 -57q-122 0 -224 57l-186 -190zM420 664 q0 -112 69.5 -184t172.5 -72t172 71.5t69 184.5t-69 184.5t-172 71.5t-172.5 -72t-69.5 -184z" />
<glyph unicode="&#xa5;" horiz-adv-x="1204" d="M27 1434h292l283 -527l283 527h293l-363 -643h207v-142h-287v-104h287v-142h-287v-403h-266v403h-287v142h287v104h-287v142h207z" />
<glyph unicode="&#xa6;" horiz-adv-x="649" d="M195 -190v794h258v-794h-258zM195 809v795h258v-795h-258z" />
<glyph unicode="&#xa7;" horiz-adv-x="1011" d="M94 594q0 181 123 270q-115 90 -115 254q0 153 104.5 246.5t278.5 93.5q157 0 271.5 -82.5t152.5 -224.5l-239 -37q-13 64 -61 100.5t-117 36.5q-64 0 -101 -35.5t-37 -97.5q0 -63 36.5 -98t109.5 -51q109 -23 183.5 -53t131 -77.5t83 -117t26.5 -166.5q0 -181 -123 -270 q114 -89 114 -254q0 -153 -104.5 -246.5t-278.5 -93.5q-157 0 -271 82.5t-152 224.5l239 37q13 -64 61 -100.5t117 -36.5q64 0 101 35.5t37 97.5q0 63 -36.5 98t-109.5 51q-109 23 -183.5 53t-131 77.5t-83 117t-26.5 166.5zM344 594q0 -83 41.5 -131t132.5 -70 q53 -11 88 -20q68 59 68 182q0 83 -41.5 131t-132.5 70q-53 11 -88 20q-68 -59 -68 -182z" />
<glyph unicode="&#xa8;" horiz-adv-x="790" d="M88 1212v230h229v-230h-229zM473 1212v230h229v-230h-229z" />
<glyph unicode="&#xa9;" horiz-adv-x="1544" d="M92 676v82q0 324 187.5 512t492.5 188t492.5 -188t187.5 -512v-82q0 -324 -187.5 -512.5t-492.5 -188.5t-492.5 188.5t-187.5 512.5zM207 692q0 -285 150 -447.5t415 -162.5t415 162.5t150 447.5v49q0 285 -150 448t-415 163t-415 -163t-150 -448v-49zM451 616v203 q0 155 88 248.5t239 93.5q132 0 217.5 -76t104.5 -208l-185 -27q-12 72 -47 107.5t-88 35.5q-137 0 -137 -194v-164q0 -195 137 -195q52 0 87.5 36t47.5 108l185 -25q-19 -133 -104 -210t-218 -77q-151 0 -239 94.5t-88 249.5z" />
<glyph unicode="&#xaa;" horiz-adv-x="835" d="M76 883v18q0 104 81 165.5t238 61.5h133v29q0 60 -30.5 93.5t-89.5 33.5q-79 0 -121 -76l-191 39q39 91 121.5 147t200.5 56q152 0 232.5 -80t80.5 -201v-487h-203v61q-70 -79 -192 -79q-114 0 -187 62t-73 157zM274 897q0 -66 105 -66q95 0 149 64v84h-155 q-47 0 -73 -20t-26 -54v-8z" />
<glyph unicode="&#xab;" horiz-adv-x="1075" d="M72 575v127l465 308v-211l-263 -160l263 -160v-211zM539 575v127l465 308v-211l-263 -160l263 -160v-211z" />
<glyph unicode="&#xac;" horiz-adv-x="1118" d="M90 565v201h918v-510h-240v309h-678z" />
<glyph unicode="&#xad;" horiz-adv-x="862" d="M102 557v217h658v-217h-658z" />
<glyph unicode="&#xae;" horiz-adv-x="1544" d="M92 676v82q0 324 187.5 512t492.5 188t492.5 -188t187.5 -512v-82q0 -324 -187.5 -512.5t-492.5 -188.5t-492.5 188.5t-187.5 512.5zM207 692q0 -285 150 -447.5t415 -162.5t415 162.5t150 447.5v49q0 285 -150 448t-415 163t-415 -163t-150 -448v-49zM473 287v858h340 q71 0 135 -29.5t108 -93.5t44 -150q0 -89 -44 -150t-116 -93l197 -342h-209l-170 315h-90v-315h-195zM668 776h118q55 0 88 26t33 72q0 48 -33 74.5t-88 26.5h-118v-199z" />
<glyph unicode="&#xaf;" horiz-adv-x="790" d="M88 1239v174h614v-174h-614z" />
<glyph unicode="&#xb0;" horiz-adv-x="729" d="M78 1161q0 129 78 209t209 80t208.5 -80t77.5 -209t-77.5 -209t-208.5 -80t-209 80t-78 209zM264 1161q0 -53 29 -83.5t72 -30.5t71.5 30t28.5 84t-28.5 84.5t-71.5 30.5t-72 -30.5t-29 -84.5z" />
<glyph unicode="&#xb1;" horiz-adv-x="1118" d="M102 0v201h914v-201h-914zM102 659v201h336v348h242v-348h336v-201h-336v-348h-242v348h-336z" />
<glyph unicode="&#xb2;" horiz-adv-x="761" d="M76 485v144l356 409q51 56 51 119q0 55 -26 84t-70 29q-45 0 -70.5 -29.5t-25.5 -85.5v-47l-215 14v35q0 128 85.5 210.5t225.5 82.5q137 0 224 -81t87 -210q0 -122 -98 -231l-233 -262h331v-181h-622z" />
<glyph unicode="&#xb3;" horiz-adv-x="761" d="M68 801l215 12v-35q0 -61 29.5 -96t72.5 -35q47 0 74.5 33.5t27.5 97.5q0 152 -104 152q-35 0 -72 -19l-98 109l188 233h-307v181h572v-156l-177 -207q213 -51 213 -295q0 -134 -86.5 -220.5t-230.5 -86.5q-153 0 -235 92.5t-82 239.5z" />
<glyph unicode="&#xb4;" horiz-adv-x="790" d="M162 1165l157 330h240l-223 -330h-174z" />
<glyph unicode="&#xb5;" horiz-adv-x="1116" d="M119 -446v1470h252v-586q0 -123 41.5 -184t136.5 -61q62 0 116.5 34t79.5 97v700h252v-1024h-252v121q-32 -67 -89.5 -106.5t-123.5 -39.5q-107 0 -161 72v-493h-252z" />
<glyph unicode="&#xb6;" horiz-adv-x="1044" d="M88 981v18q0 208 100 321.5t293 113.5h422v-1702h-141v1548h-88v-1548h-150v815h-43q-193 0 -293 113t-100 321z" />
<glyph unicode="&#xb7;" horiz-adv-x="552" d="M137 551v268h279v-268h-279z" />
<glyph unicode="&#xb8;" horiz-adv-x="790" d="M145 -401l97 127q53 -43 114 -43q72 0 72 53q0 30 -41 49t-115 22l-16 21l74 172h182l-39 -92q154 -52 154 -193q0 -94 -66.5 -151.5t-187.5 -57.5q-65 0 -125 24.5t-103 68.5z" />
<glyph unicode="&#xb9;" horiz-adv-x="761" d="M135 485v181h172v542l-172 -71v194l217 103h172v-768h170v-181h-559z" />
<glyph unicode="&#xba;" horiz-adv-x="835" d="M80 975v164q0 130 95.5 220.5t242.5 90.5t242.5 -90.5t95.5 -220.5v-164q0 -130 -95.5 -220.5t-242.5 -90.5t-242.5 90.5t-95.5 220.5zM289 999q0 -80 35 -120.5t94 -40.5t94 40.5t35 120.5v115q0 80 -35 121t-94 41t-94 -41t-35 -121v-115z" />
<glyph unicode="&#xbb;" horiz-adv-x="1075" d="M72 268v211l262 160l-262 160v211l465 -308v-127zM539 268v211l262 160l-262 160v211l465 -308v-127z" />
<glyph unicode="&#xbc;" horiz-adv-x="1937" d="M135 485v181h172v542l-172 -71v194l217 103h172v-768h170v-181h-559zM512 0l702 1434h211l-702 -1434h-211zM1190 178v152l356 618h221v-596h97v-174h-97v-178h-213v178h-364zM1401 352h153v260z" />
<glyph unicode="&#xbd;" horiz-adv-x="1937" d="M135 485v181h172v542l-172 -71v194l217 103h172v-768h170v-181h-559zM512 0l702 1434h211l-702 -1434h-211zM1245 0v143l357 410q51 56 51 119q0 55 -26.5 83.5t-70.5 28.5q-45 0 -70.5 -29t-25.5 -85v-47l-215 14v35q0 128 85.5 210.5t225.5 82.5q137 0 224.5 -81 t87.5 -210q0 -122 -99 -232l-233 -262h332v-180h-623z" />
<glyph unicode="&#xbe;" horiz-adv-x="1937" d="M68 801l215 12v-35q0 -61 29.5 -96t72.5 -35q47 0 74.5 33.5t27.5 97.5q0 152 -104 152q-35 0 -72 -19l-98 109l188 233h-307v181h572v-156l-177 -207q213 -51 213 -295q0 -134 -86.5 -220.5t-230.5 -86.5q-153 0 -235 92.5t-82 239.5zM512 0l702 1434h211l-702 -1434 h-211zM1190 178v152l356 618h221v-596h97v-174h-97v-178h-213v178h-364zM1401 352h153v260z" />
<glyph unicode="&#xbf;" horiz-adv-x="1083" d="M119 -25q0 122 43.5 207t138.5 164q69 59 98 111t29 127v51h248v-68q0 -118 -38.5 -192t-148.5 -164q-69 -59 -95.5 -107.5t-26.5 -117.5q0 -91 47 -144t131 -53q83 0 133.5 52.5t60.5 152.5l246 -19q-15 -180 -133 -294.5t-311 -114.5q-192 0 -307 114.5t-115 294.5z M428 768v256h246v-256h-246z" />
<glyph unicode="&#xc0;" horiz-adv-x="1245" d="M10 0l475 1434h275l475 -1434h-285l-90 293h-475l-90 -293h-285zM340 1892h240l158 -330h-174zM455 522h336l-168 559z" />
<glyph unicode="&#xc1;" horiz-adv-x="1245" d="M10 0l475 1434h275l475 -1434h-285l-90 293h-475l-90 -293h-285zM455 522h336l-168 559zM508 1563l158 329h239l-223 -329h-174z" />
<glyph unicode="&#xc2;" horiz-adv-x="1245" d="M10 0l475 1434h275l475 -1434h-285l-90 293h-475l-90 -293h-285zM274 1562l246 330h205l245 -330h-196l-152 156l-151 -156h-197zM455 522h336l-168 559z" />
<glyph unicode="&#xc3;" horiz-adv-x="1245" d="M10 0l475 1434h275l475 -1434h-285l-90 293h-475l-90 -293h-285zM279 1614q10 119 68 181.5t151 62.5q89 0 159 -64q49 -43 84 -43q51 0 62 92l164 -16q-10 -119 -68 -181.5t-151 -62.5q-90 0 -160 64q-49 43 -84 43q-51 0 -62 -93zM455 522h336l-168 559z" />
<glyph unicode="&#xc4;" horiz-adv-x="1245" d="M10 0l475 1434h275l475 -1434h-285l-90 293h-475l-90 -293h-285zM315 1610v229h230v-229h-230zM455 522h336l-168 559zM700 1610v229h230v-229h-230z" />
<glyph unicode="&#xc5;" horiz-adv-x="1245" d="M10 0l475 1434h275l475 -1434h-285l-90 293h-475l-90 -293h-285zM399 1726q0 98 63.5 157.5t159.5 59.5t159.5 -59.5t63.5 -157.5t-63.5 -157.5t-159.5 -59.5t-159.5 59.5t-63.5 157.5zM455 522h336l-168 559zM549 1726q0 -38 19.5 -59t53.5 -21t54 21t20 59t-20 59 t-54 21t-53.5 -21t-19.5 -59z" />
<glyph unicode="&#xc6;" horiz-adv-x="1859" d="M10 0l701 1434h1058v-240h-639v-338h556v-240h-556v-376h639v-240h-907v283h-420l-133 -283h-299zM557 522h305v645z" />
<glyph unicode="&#xc7;" horiz-adv-x="1232" d="M98 547v340q0 252 145.5 411.5t383.5 159.5q214 0 354.5 -127t171.5 -342l-266 -39q-17 129 -83 199t-167 70q-131 0 -200.5 -93t-69.5 -272v-274q0 -179 69.5 -272t200.5 -93q101 0 167 69.5t83 198.5l266 -39q-28 -188 -139.5 -309.5t-284.5 -150.5l-33 -76 q154 -52 154 -193q0 -93 -68 -151t-186 -58q-137 0 -227 93l96 127q53 -43 115 -43q71 0 71 53q0 30 -40.5 49t-114.5 22l-17 21l66 154q-204 28 -325.5 182t-121.5 383z" />
<glyph unicode="&#xc8;" horiz-adv-x="1136" d="M139 0v1434h908v-238h-639v-340h555v-238h-555v-380h639v-238h-908zM337 1892h240l158 -330h-174z" />
<glyph unicode="&#xc9;" horiz-adv-x="1136" d="M139 0v1434h908v-238h-639v-340h555v-238h-555v-380h639v-238h-908zM457 1562l157 330h240l-223 -330h-174z" />
<glyph unicode="&#xca;" horiz-adv-x="1136" d="M139 0v1434h908v-238h-639v-340h555v-238h-555v-380h639v-238h-908zM252 1563l246 329h204l246 -329h-196l-152 155l-151 -155h-197z" />
<glyph unicode="&#xcb;" horiz-adv-x="1136" d="M139 0v1434h908v-238h-639v-340h555v-238h-555v-380h639v-238h-908zM291 1609v230h229v-230h-229zM676 1609v230h229v-230h-229z" />
<glyph unicode="&#xcc;" horiz-adv-x="563" d="M8 1892h240l158 -329h-175zM147 0v1434h269v-1434h-269z" />
<glyph unicode="&#xcd;" horiz-adv-x="563" d="M147 0v1434h269v-1434h-269zM160 1562l157 330h240l-223 -330h-174z" />
<glyph unicode="&#xce;" horiz-adv-x="563" d="M-68 1562l246 330h205l245 -330h-196l-152 156l-151 -156h-197zM147 0v1434h269v-1434h-269z" />
<glyph unicode="&#xcf;" horiz-adv-x="563" d="M-27 1610v229h230v-229h-230zM147 0v1434h269v-1434h-269zM358 1610v229h230v-229h-230z" />
<glyph unicode="&#xd0;" horiz-adv-x="1239" d="M8 627v178h131v629h465q242 0 385.5 -147t143.5 -398v-344q0 -251 -143.5 -398t-385.5 -147h-465v627h-131zM408 238h188q268 0 268 340v278q0 340 -268 340h-188v-391h221v-178h-221v-389z" />
<glyph unicode="&#xd1;" horiz-adv-x="1349" d="M139 0v1434h242l561 -938v938h268v-1434h-241l-561 938v-938h-269zM330 1614q10 119 68 181.5t151 62.5q90 0 160 -64q49 -43 84 -43q50 0 61 92l164 -16q-10 -119 -68 -181.5t-151 -62.5q-90 0 -160 64q-49 43 -84 43q-50 0 -61 -93z" />
<glyph unicode="&#xd2;" horiz-adv-x="1257" d="M98 547v340q0 256 142.5 413.5t388.5 157.5q245 0 387.5 -157.5t142.5 -413.5v-340q0 -256 -142.5 -414t-387.5 -158t-388 158t-143 414zM367 580q0 -176 69.5 -270.5t192.5 -94.5t192.5 94.5t69.5 270.5v274q0 176 -69.5 270.5t-192.5 94.5t-192.5 -94.5t-69.5 -270.5 v-274zM370 1892h240l158 -330h-174z" />
<glyph unicode="&#xd3;" horiz-adv-x="1257" d="M98 547v340q0 256 142.5 413.5t388.5 157.5q245 0 387.5 -157.5t142.5 -413.5v-340q0 -256 -142.5 -414t-387.5 -158t-388 158t-143 414zM367 580q0 -176 69.5 -270.5t192.5 -94.5t192.5 94.5t69.5 270.5v274q0 176 -69.5 270.5t-192.5 94.5t-192.5 -94.5t-69.5 -270.5 v-274zM490 1562l157 330h240l-223 -330h-174z" />
<glyph unicode="&#xd4;" horiz-adv-x="1257" d="M98 547v340q0 256 142.5 413.5t388.5 157.5q245 0 387.5 -157.5t142.5 -413.5v-340q0 -256 -142.5 -414t-387.5 -158t-388 158t-143 414zM280 1562l246 330h205l245 -330h-196l-152 156l-151 -156h-197zM367 580q0 -176 69.5 -270.5t192.5 -94.5t192.5 94.5t69.5 270.5 v274q0 176 -69.5 270.5t-192.5 94.5t-192.5 -94.5t-69.5 -270.5v-274z" />
<glyph unicode="&#xd5;" horiz-adv-x="1257" d="M98 547v340q0 256 142.5 413.5t388.5 157.5q245 0 387.5 -157.5t142.5 -413.5v-340q0 -256 -142.5 -414t-387.5 -158t-388 158t-143 414zM284 1614q10 118 67.5 180.5t151.5 62.5q91 0 160 -63q49 -43 84 -43q50 0 61 92l164 -16q-10 -119 -68 -181.5t-151 -62.5 q-91 0 -160 63q-49 43 -84 43q-50 0 -61 -92zM367 580q0 -176 69.5 -270.5t192.5 -94.5t192.5 94.5t69.5 270.5v274q0 176 -69.5 270.5t-192.5 94.5t-192.5 -94.5t-69.5 -270.5v-274z" />
<glyph unicode="&#xd6;" horiz-adv-x="1257" d="M98 547v340q0 256 142.5 413.5t388.5 157.5q245 0 387.5 -157.5t142.5 -413.5v-340q0 -256 -142.5 -414t-387.5 -158t-388 158t-143 414zM322 1610v229h229v-229h-229zM367 580q0 -176 69.5 -270.5t192.5 -94.5t192.5 94.5t69.5 270.5v274q0 176 -69.5 270.5t-192.5 94.5 t-192.5 -94.5t-69.5 -270.5v-274zM707 1610v229h229v-229h-229z" />
<glyph unicode="&#xd7;" horiz-adv-x="1120" d="M121 952l151 152l289 -289l289 289l151 -152l-288 -286l286 -289l-151 -150l-287 287l-287 -287l-151 150l287 289z" />
<glyph unicode="&#xd8;" horiz-adv-x="1257" d="M98 547v340q0 256 142.5 413.5t388.5 157.5q156 0 274 -67l60 108h167l-110 -205q139 -154 139 -407v-340q0 -256 -142.5 -414t-387.5 -158q-156 0 -279 68l-57 -109h-168l108 205q-135 153 -135 408zM367 580q0 -90 18 -160l397 745q-63 54 -153 54q-123 0 -192.5 -94.5 t-69.5 -270.5v-274zM471 270q64 -55 158 -55q123 0 192.5 94.5t69.5 270.5v274q0 80 -21 162z" />
<glyph unicode="&#xd9;" horiz-adv-x="1282" d="M123 530v904h268v-813q0 -206 60 -306t190 -100t190 100t60 306v813h268v-904q0 -254 -138 -404.5t-380 -150.5t-380 150.5t-138 404.5zM370 1892h240l158 -330h-174z" />
<glyph unicode="&#xda;" horiz-adv-x="1282" d="M123 530v904h268v-813q0 -206 60 -306t190 -100t190 100t60 306v813h268v-904q0 -254 -138 -404.5t-380 -150.5t-380 150.5t-138 404.5zM514 1562l157 330h240l-223 -330h-174z" />
<glyph unicode="&#xdb;" horiz-adv-x="1282" d="M123 530v904h268v-813q0 -206 60 -306t190 -100t190 100t60 306v813h268v-904q0 -254 -138 -404.5t-380 -150.5t-380 150.5t-138 404.5zM293 1562l246 330h205l245 -330h-196l-152 156l-151 -156h-197z" />
<glyph unicode="&#xdc;" horiz-adv-x="1282" d="M123 530q0 -254 138 -404.5t380 -150.5t380 150.5t138 404.5v904h-268v-813q0 -206 -60 -306t-190 -100t-190 100t-60 306v813h-268v-904zM334 1610v229h229v-229h-229zM719 1610v229h229v-229h-229z" />
<glyph unicode="&#xdd;" horiz-adv-x="1204" d="M27 1434h292l283 -527l283 527h293l-443 -785v-649h-266v649zM473 1562l157 330h240l-223 -330h-174z" />
<glyph unicode="&#xde;" horiz-adv-x="1214" d="M139 0v1434h269v-267h258q70 0 137 -17t127 -54t105.5 -89.5t72.5 -128t27 -165.5t-27 -166t-72.5 -128.5t-106 -89.5t-127 -54t-136.5 -17h-258v-258h-269zM408 498h225q105 0 169 55.5t64 159.5q0 105 -64 160t-169 55h-225v-430z" />
<glyph unicode="&#xdf;" horiz-adv-x="1206" d="M131 0v1008q0 216 126 333t331 117q203 0 322.5 -115.5t119.5 -283.5v-25q0 -85 -45.5 -156.5t-126.5 -107.5q137 -40 217 -138t80 -245v-29q0 -179 -115 -281t-307 -102q-155 0 -262 64l64 211q82 -39 174 -39q80 0 129 42.5t49 121.5v14q0 110 -85 167.5t-231 57.5 l-36 193q113 31 169.5 84.5t57.5 136.5v8q0 72 -48 128.5t-128 56.5q-89 0 -138 -62t-49 -192v-967h-268z" />
<glyph unicode="&#xe0;" horiz-adv-x="1056" d="M76 270v27q0 65 25 120t76 99.5t138.5 70t204.5 25.5h174v29q0 95 -45 142.5t-127 47.5q-64 0 -111.5 -30t-72.5 -86l-229 59q56 127 166.5 201t259.5 74q192 0 301.5 -110t109.5 -286v-653h-252v106q-91 -131 -276 -131q-152 0 -247 83t-95 212zM284 1485h240l158 -330 h-174zM328 293q0 -47 36 -77t109 -30q71 0 132 31.5t89 83.5v115h-217q-68 0 -108.5 -29.5t-40.5 -81.5v-12z" />
<glyph unicode="&#xe1;" horiz-adv-x="1056" d="M76 270v27q0 65 25 120t76 99.5t138.5 70t204.5 25.5h174v29q0 95 -45 142.5t-127 47.5q-64 0 -111.5 -30t-72.5 -86l-229 59q56 127 166.5 201t259.5 74q192 0 301.5 -110t109.5 -286v-653h-252v106q-91 -131 -276 -131q-152 0 -247 83t-95 212zM328 293q0 -47 36 -77 t109 -30q71 0 132 31.5t89 83.5v115h-217q-68 0 -108.5 -29.5t-40.5 -81.5v-12zM377 1155l157 330h240l-223 -330h-174z" />
<glyph unicode="&#xe2;" horiz-adv-x="1056" d="M76 270v27q0 65 25 120t76 99.5t138.5 70t204.5 25.5h174v29q0 95 -45 142.5t-127 47.5q-64 0 -111.5 -30t-72.5 -86l-229 59q56 127 166.5 201t259.5 74q192 0 301.5 -110t109.5 -286v-653h-252v106q-91 -131 -276 -131q-152 0 -247 83t-95 212zM194 1155l246 330h205 l245 -330h-196l-152 156l-151 -156h-197zM328 293q0 -47 36 -77t109 -30q71 0 132 31.5t89 83.5v115h-217q-68 0 -108.5 -29.5t-40.5 -81.5v-12z" />
<glyph unicode="&#xe3;" horiz-adv-x="1056" d="M76 270v27q0 65 25 120t76 99.5t138.5 70t204.5 25.5h174v29q0 95 -45 142.5t-127 47.5q-64 0 -111.5 -30t-72.5 -86l-229 59q56 127 166.5 201t259.5 74q192 0 301.5 -110t109.5 -286v-653h-252v106q-91 -131 -276 -131q-152 0 -247 83t-95 212zM186 1206q10 118 68 181 t152 63q89 0 159 -64q49 -43 84 -43q51 0 62 93l163 -17q-10 -118 -67.5 -180.5t-151.5 -62.5q-90 0 -159 63q-49 43 -84 43q-51 0 -62 -92zM328 293q0 -47 36 -77t109 -30q71 0 132 31.5t89 83.5v115h-217q-68 0 -108.5 -29.5t-40.5 -81.5v-12z" />
<glyph unicode="&#xe4;" horiz-adv-x="1056" d="M76 270v27q0 65 25 120t76 99.5t138.5 70t204.5 25.5h174v29q0 95 -45 142.5t-127 47.5q-64 0 -111.5 -30t-72.5 -86l-229 59q56 127 166.5 201t259.5 74q192 0 301.5 -110t109.5 -286v-653h-252v106q-91 -131 -276 -131q-152 0 -247 83t-95 212zM223 1202v230h230v-230 h-230zM328 293q0 -47 36 -77t109 -30q71 0 132 31.5t89 83.5v115h-217q-68 0 -108.5 -29.5t-40.5 -81.5v-12zM608 1202v230h230v-230h-230z" />
<glyph unicode="&#xe5;" horiz-adv-x="1056" d="M76 270v27q0 65 25 120t76 99.5t138.5 70t204.5 25.5h174v29q0 95 -45 142.5t-127 47.5q-64 0 -111.5 -30t-72.5 -86l-229 59q56 127 166.5 201t259.5 74q192 0 301.5 -110t109.5 -286v-653h-252v106q-91 -131 -276 -131q-152 0 -247 83t-95 212zM322 1323 q0 98 63.5 157.5t159.5 59.5t159.5 -59.5t63.5 -157.5t-63.5 -157.5t-159.5 -59.5t-159.5 59.5t-63.5 157.5zM328 293q0 -47 36 -77t109 -30q71 0 132 31.5t89 83.5v115h-217q-68 0 -108.5 -29.5t-40.5 -81.5v-12zM472 1323q0 -38 19.5 -59t53.5 -21t54 21t20 59t-20 59 t-54 21t-53.5 -21t-19.5 -59z" />
<glyph unicode="&#xe6;" horiz-adv-x="1677" d="M76 270v27q0 65 25 120t76 99.5t138.5 70t204.5 25.5h174v29q0 95 -45 142.5t-127 47.5q-64 0 -111.5 -30t-72.5 -86l-229 59q56 127 166.5 201t259.5 74q191 0 299 -127q118 127 307 127q136 0 239 -59t155 -155t52 -212v-197h-641q0 -111 51.5 -172t147.5 -61 q66 0 113 30t65 86l254 -28q-38 -135 -154 -220.5t-278 -85.5q-223 0 -348 164q-121 -164 -379 -164q-152 0 -247 83t-95 212zM328 293q0 -47 36 -77t109 -30q71 0 132 31.5t89 83.5v115h-217q-68 0 -108.5 -29.5t-40.5 -81.5v-12zM946 610h389q-16 221 -194 221 q-88 0 -140 -55.5t-55 -154.5v-11z" />
<glyph unicode="&#xe7;" horiz-adv-x="1032" d="M88 406v212q0 178 127 304.5t320 126.5q166 0 283 -97.5t149 -246.5l-254 -37q-14 81 -62 122t-116 41q-85 0 -140 -61.5t-55 -181.5v-152q0 -120 55 -181.5t140 -61.5q68 0 116 41t62 122l254 -37q-27 -124 -114.5 -214t-215.5 -117l-31 -82q152 -48 152 -191 q0 -95 -66.5 -153t-187.5 -58q-65 0 -125 24.5t-103 68.5l97 129q55 -45 114 -45q35 0 53.5 15t18.5 40q0 29 -41 47.5t-115 21.5l-16 23l66 156q-162 26 -263.5 145t-101.5 277z" />
<glyph unicode="&#xe8;" horiz-adv-x="1069" d="M88 403v215q0 88 31 166t87 137t141 93.5t188 34.5q136 0 239 -59t155 -155t52 -212v-197h-641q0 -111 51.5 -172t147.5 -61q66 0 113 30t65 86l254 -28q-38 -135 -154 -220.5t-278 -85.5q-139 0 -243 59.5t-156 155.5t-52 213zM274 1485h240l158 -330h-174zM340 610h389 q-16 221 -194 221q-90 0 -142.5 -58.5t-52.5 -162.5z" />
<glyph unicode="&#xe9;" horiz-adv-x="1069" d="M88 403v215q0 88 31 166t87 137t141 93.5t188 34.5q136 0 239 -59t155 -155t52 -212v-197h-641q0 -111 51.5 -172t147.5 -61q66 0 113 30t65 86l254 -28q-38 -135 -154 -220.5t-278 -85.5q-139 0 -243 59.5t-156 155.5t-52 213zM340 610h389q-16 221 -194 221 q-90 0 -142.5 -58.5t-52.5 -162.5zM398 1155l157 330h240l-223 -330h-174z" />
<glyph unicode="&#xea;" horiz-adv-x="1069" d="M88 403v215q0 88 31 166t87 137t141 93.5t188 34.5q136 0 239 -59t155 -155t52 -212v-197h-641q0 -111 51.5 -172t147.5 -61q66 0 113 30t65 86l254 -28q-38 -135 -154 -220.5t-278 -85.5q-139 0 -243 59.5t-156 155.5t-52 213zM186 1155l246 330h205l246 -330h-197 l-151 156l-152 -156h-197zM340 610h389q-16 221 -194 221q-90 0 -142.5 -58.5t-52.5 -162.5z" />
<glyph unicode="&#xeb;" horiz-adv-x="1069" d="M88 403v215q0 88 31 166t87 137t141 93.5t188 34.5q136 0 239 -59t155 -155t52 -212v-197h-641q0 -111 51.5 -172t147.5 -61q66 0 113 30t65 86l254 -28q-38 -135 -154 -220.5t-278 -85.5q-139 0 -243 59.5t-156 155.5t-52 213zM227 1202v230h229v-230h-229zM340 610h389 q-16 221 -194 221q-90 0 -142.5 -58.5t-52.5 -162.5zM612 1202v230h229v-230h-229z" />
<glyph unicode="&#xec;" horiz-adv-x="530" d="M-19 1485h240l158 -330h-174zM139 0v1024h252v-1024h-252z" />
<glyph unicode="&#xed;" horiz-adv-x="530" d="M139 0v1024h252v-1024h-252zM152 1155l157 330h240l-223 -330h-174z" />
<glyph unicode="&#xee;" horiz-adv-x="530" d="M-84 1155l246 330h205l245 -330h-196l-152 156l-151 -156h-197zM139 0v1024h252v-1024h-252z" />
<glyph unicode="&#xef;" horiz-adv-x="530" d="M-43 1202v230h229v-230h-229zM139 0v1024h252v-1024h-252zM342 1202v230h229v-230h-229z" />
<glyph unicode="&#xf0;" horiz-adv-x="1071" d="M86 391v238q0 172 120.5 293.5t303.5 121.5q30 0 65 -6l-69 138l-225 -50l-31 129l196 41l-79 162h260l57 -110l213 47l31 -129l-180 -39l137 -260q98 -188 98 -379v-197q0 -84 -32 -159.5t-89 -132.5t-142 -90.5t-185 -33.5t-185.5 33.5t-142.5 90.5t-89 133t-32 159z M338 438q0 -123 56 -186.5t141 -63.5t140.5 63.5t55.5 186.5v146q0 121 -55.5 184t-140.5 63t-141 -63t-56 -184v-146z" />
<glyph unicode="&#xf1;" d="M119 0v1024h252v-115q40 63 111.5 101.5t160.5 38.5q168 0 261 -111.5t93 -306.5v-631h-252v594q0 120 -43 178.5t-141 58.5q-59 0 -111.5 -36t-78.5 -95v-700h-252zM207 1206q10 119 68 181.5t151 62.5q90 0 160 -64q49 -43 84 -43q50 0 61 93l164 -17 q-10 -118 -67.5 -180.5t-151.5 -62.5q-91 0 -160 63q-49 43 -84 43q-50 0 -61 -92z" />
<glyph unicode="&#xf2;" horiz-adv-x="1069" d="M88 395v234q0 178 124.5 299t322.5 121q197 0 321.5 -121t124.5 -299v-234q0 -178 -124.5 -299t-321.5 -121q-198 0 -322.5 121t-124.5 299zM274 1485h240l158 -330h-174zM340 422q0 -117 55 -173t140 -56t139.5 56t54.5 173v180q0 117 -54.5 173t-139.5 56t-140 -56 t-55 -173v-180z" />
<glyph unicode="&#xf3;" horiz-adv-x="1069" d="M88 395v234q0 178 124.5 299t322.5 121q197 0 321.5 -121t124.5 -299v-234q0 -178 -124.5 -299t-321.5 -121q-198 0 -322.5 121t-124.5 299zM340 422q0 -117 55 -173t140 -56t139.5 56t54.5 173v180q0 117 -54.5 173t-139.5 56t-140 -56t-55 -173v-180zM398 1155l157 330 h240l-223 -330h-174z" />
<glyph unicode="&#xf4;" horiz-adv-x="1069" d="M88 395v234q0 178 124.5 299t322.5 121q197 0 321.5 -121t124.5 -299v-234q0 -178 -124.5 -299t-321.5 -121q-198 0 -322.5 121t-124.5 299zM186 1155l246 330h205l245 -330h-196l-152 156l-151 -156h-197zM340 422q0 -117 55 -173t140 -56t139.5 56t54.5 173v180 q0 117 -54.5 173t-139.5 56t-140 -56t-55 -173v-180z" />
<glyph unicode="&#xf5;" horiz-adv-x="1069" d="M88 395v234q0 178 124.5 299t322.5 121q197 0 321.5 -121t124.5 -299v-234q0 -178 -124.5 -299t-321.5 -121q-198 0 -322.5 121t-124.5 299zM190 1207q10 118 67.5 180.5t151.5 62.5q91 0 160 -63q49 -43 84 -43q50 0 61 92l164 -16q-10 -119 -68 -181.5t-151 -62.5 q-91 0 -160 63q-49 43 -84 43q-50 0 -61 -92zM340 422q0 -117 55 -173t140 -56t139.5 56t54.5 173v180q0 117 -54.5 173t-139.5 56t-140 -56t-55 -173v-180z" />
<glyph unicode="&#xf6;" horiz-adv-x="1069" d="M88 395v234q0 178 124.5 299t322.5 121q197 0 321.5 -121t124.5 -299v-234q0 -178 -124.5 -299t-321.5 -121q-198 0 -322.5 121t-124.5 299zM227 1202v230h230v-230h-230zM340 422q0 -117 55 -173t140 -56t139.5 56t54.5 173v180q0 117 -54.5 173t-139.5 56t-140 -56 t-55 -173v-180zM612 1202v230h230v-230h-230z" />
<glyph unicode="&#xf7;" horiz-adv-x="1120" d="M102 563v203h916v-203h-916zM432 176v248h254v-248h-254zM432 905v248h254v-248h-254z" />
<glyph unicode="&#xf8;" horiz-adv-x="1069" d="M88 395v234q0 178 124.5 299t322.5 121q109 0 190 -37l49 90h158l-88 -164q65 -58 101 -138t36 -171v-234q0 -178 -124.5 -299t-321.5 -121q-91 0 -191 35l-47 -88h-160l88 162q-137 121 -137 311zM340 422q0 -56 12 -100l266 493q-40 16 -83 16q-85 0 -140 -56t-55 -173 v-180zM451 209q36 -16 84 -16q85 0 139.5 56t54.5 173v180q0 47 -14 98z" />
<glyph unicode="&#xf9;" d="M111 393v631h251v-594q0 -120 43.5 -178.5t141.5 -58.5q59 0 111.5 36t78.5 95v700h252v-1024h-252v115q-40 -63 -111.5 -101.5t-160.5 -38.5q-168 0 -261 111.5t-93 306.5zM292 1485h240l158 -330h-174z" />
<glyph unicode="&#xfa;" d="M111 393v631h251v-594q0 -120 43.5 -178.5t141.5 -58.5q59 0 111.5 36t78.5 95v700h252v-1024h-252v115q-40 -63 -111.5 -101.5t-160.5 -38.5q-168 0 -261 111.5t-93 306.5zM412 1155l157 330h240l-223 -330h-174z" />
<glyph unicode="&#xfb;" d="M111 393v631h251v-594q0 -120 43.5 -178.5t141.5 -58.5q59 0 111.5 36t78.5 95v700h252v-1024h-252v115q-40 -63 -111.5 -101.5t-160.5 -38.5q-168 0 -261 111.5t-93 306.5zM201 1155l246 330h205l245 -330h-196l-152 156l-151 -156h-197z" />
<glyph unicode="&#xfc;" d="M111 393v631h251v-594q0 -120 43.5 -178.5t141.5 -58.5q59 0 111.5 36t78.5 95v700h252v-1024h-252v115q-40 -63 -111.5 -101.5t-160.5 -38.5q-168 0 -261 111.5t-93 306.5zM240 1202v230h229v-230h-229zM625 1202v230h229v-230h-229z" />
<glyph unicode="&#xfd;" horiz-adv-x="1032" d="M16 1024h269l243 -645l220 645h268l-426 -1208q-51 -146 -130 -197t-231 -51h-86v215h70q58 0 91 24t56 87l54 157zM381 1155l157 330h240l-223 -330h-174z" />
<glyph unicode="&#xfe;" horiz-adv-x="1083" d="M119 -446v1904h252v-532q37 57 105 90t151 33q171 0 269.5 -117.5t98.5 -306.5v-226q0 -189 -98.5 -306.5t-269.5 -117.5q-83 0 -151 33t-105 90v-544h-252zM371 305q59 -112 174 -112q105 0 151.5 64.5t46.5 197.5v114q0 133 -46.5 197.5t-151.5 64.5q-115 0 -174 -112 v-414z" />
<glyph unicode="&#xff;" horiz-adv-x="1032" d="M16 1024h269l243 -645l220 645h268l-426 -1208q-51 -146 -130 -197t-231 -51h-86v215h70q58 0 91 24t56 87l54 157zM215 1202v230h229v-230h-229zM600 1202v230h229v-230h-229z" />
<glyph unicode="&#x152;" horiz-adv-x="1841" d="M98 547v340q0 251 143.5 399t383.5 148h1126v-238h-639v-340h555v-238h-555v-380h639v-238h-1126q-240 0 -383.5 148t-143.5 399zM367 580q0 -172 69.5 -257t196.5 -85h211v958h-211q-127 0 -196.5 -85t-69.5 -257v-274z" />
<glyph unicode="&#x153;" horiz-adv-x="1712" d="M86 403v215q0 179 127 305t317 126q102 0 187 -40t139 -114q52 74 137 114t187 40q190 0 317 -126t127 -305v-192h-643q0 -108 56.5 -172t144.5 -64q136 0 172 119q40 -5 125 -14t129 -14q-37 -139 -150.5 -222.5t-273.5 -83.5q-106 0 -191 38.5t-139 111.5 q-53 -73 -138 -111.5t-186 -38.5q-190 0 -317 124.5t-127 303.5zM338 434q0 -118 55.5 -181t138.5 -63q85 0 141 62.5t56 181.5v154q0 118 -56 180.5t-141 62.5q-83 0 -138.5 -62.5t-55.5 -180.5v-154zM981 608h391q-4 108 -58.5 165.5t-135.5 57.5q-83 0 -138.5 -57.5 t-58.5 -165.5z" />
<glyph unicode="&#x178;" horiz-adv-x="1204" d="M27 1434h292l283 -527l283 527h293l-443 -785v-649h-266v649zM295 1609v230h229v-230h-229zM680 1609v230h229v-230h-229z" />
<glyph unicode="&#x2c6;" horiz-adv-x="790" d="M47 1165l246 330h205l245 -330h-196l-152 156l-151 -156h-197z" />
<glyph unicode="&#x2dc;" horiz-adv-x="790" d="M51 1219q10 118 67.5 180.5t151.5 62.5q91 0 160 -63q49 -43 84 -43q50 0 61 92l164 -16q-10 -119 -68 -181.5t-151 -62.5q-91 0 -160 63q-49 43 -84 43q-50 0 -61 -92z" />
<glyph unicode="&#x2000;" horiz-adv-x="971" />
<glyph unicode="&#x2001;" horiz-adv-x="1943" />
<glyph unicode="&#x2002;" horiz-adv-x="971" />
<glyph unicode="&#x2003;" horiz-adv-x="1943" />
<glyph unicode="&#x2004;" horiz-adv-x="647" />
<glyph unicode="&#x2005;" horiz-adv-x="485" />
<glyph unicode="&#x2006;" horiz-adv-x="323" />
<glyph unicode="&#x2007;" horiz-adv-x="323" />
<glyph unicode="&#x2008;" horiz-adv-x="242" />
<glyph unicode="&#x2009;" horiz-adv-x="388" />
<glyph unicode="&#x200a;" horiz-adv-x="107" />
<glyph unicode="&#x2010;" horiz-adv-x="862" d="M102 557v217h658v-217h-658z" />
<glyph unicode="&#x2011;" horiz-adv-x="862" d="M102 557v217h658v-217h-658z" />
<glyph unicode="&#x2012;" horiz-adv-x="862" d="M102 557v217h658v-217h-658z" />
<glyph unicode="&#x2013;" horiz-adv-x="1024" d="M0 563v209h1024v-209h-1024z" />
<glyph unicode="&#x2014;" horiz-adv-x="2048" d="M0 563v209h2048v-209h-2048z" />
<glyph unicode="&#x2018;" horiz-adv-x="552" d="M137 1085v263q0 109 72 181t207 79v-109q-75 -12 -110 -45.5t-36 -99.5h146v-269h-279z" />
<glyph unicode="&#x2019;" horiz-adv-x="552" d="M137 1085v109q75 12 110 45.5t36 99.5h-146v269h279v-262q0 -109 -72 -181.5t-207 -79.5z" />
<glyph unicode="&#x201a;" horiz-adv-x="552" d="M137 0v268h279v-262q0 -109 -72 -181t-207 -79v109q75 12 110 45.5t36 99.5h-146z" />
<glyph unicode="&#x201c;" horiz-adv-x="929" d="M137 1085v263q0 109 72 181t207 79v-109q-75 -12 -110 -45.5t-36 -99.5h146v-269h-279zM514 1085v263q0 109 72 181t207 79v-109q-75 -12 -110 -45.5t-36 -99.5h146v-269h-279z" />
<glyph unicode="&#x201d;" horiz-adv-x="929" d="M137 1085v109q75 12 110 45.5t36 99.5h-146v269h279v-262q0 -109 -72 -181.5t-207 -79.5zM514 1085v109q75 12 109.5 45.5t35.5 99.5h-145v269h279v-262q0 -109 -72 -181.5t-207 -79.5z" />
<glyph unicode="&#x201e;" horiz-adv-x="929" d="M137 0v268h279v-262q0 -109 -72 -181t-207 -79v109q75 12 110 45.5t36 99.5h-146zM514 0v268h279v-262q0 -109 -72 -181t-207 -79v109q75 12 109.5 45.5t35.5 99.5h-145z" />
<glyph unicode="&#x2022;" horiz-adv-x="757" d="M98 668q0 115 82.5 197.5t198.5 82.5q115 0 197.5 -82t82.5 -198t-82.5 -198.5t-197.5 -82.5t-198 82.5t-83 198.5z" />
<glyph unicode="&#x2026;" horiz-adv-x="1658" d="M137 0v268h279v-268h-279zM690 0v268h279v-268h-279zM1243 0v268h279v-268h-279z" />
<glyph unicode="&#x202f;" horiz-adv-x="388" />
<glyph unicode="&#x2039;" horiz-adv-x="608" d="M72 575v127l465 308v-211l-263 -160l263 -160v-211z" />
<glyph unicode="&#x203a;" horiz-adv-x="608" d="M72 268v211l262 160l-262 160v211l465 -308v-127z" />
<glyph unicode="&#x205f;" horiz-adv-x="485" />
<glyph unicode="&#x20ac;" horiz-adv-x="1282" d="M37 514v141h110v101h-110v141h110q3 248 148 404.5t381 156.5q214 0 354.5 -127t171.5 -342l-266 -39q-17 129 -83 199t-167 70q-123 0 -192 -82t-78 -240h323l-24 -141h-299v-101h282l-22 -141h-258q12 -147 80.5 -223t187.5 -76q101 0 167 69.5t83 198.5l266 -39 q-31 -215 -171.5 -342t-354.5 -127q-230 0 -374 149.5t-155 389.5h-110z" />
<glyph unicode="&#x2122;" horiz-adv-x="1306" d="M27 1272v162h512v-162h-164v-522h-185v522h-163zM592 750v684h151l177 -338l176 338h151v-684h-180v331l-88 -174h-119l-88 174v-331h-180z" />
<glyph unicode="&#x25fc;" horiz-adv-x="1024" d="M0 0v1024h1024v-1024h-1024z" />
</font>
</defs>
</svg>
